<?xml version="1.0" encoding="UTF-8" standalone="no"?>
<!-- Created with Inkscape (http://www.inkscape.org/) -->

<svg
   width="176.68985mm"
   height="180.96402mm"
   viewBox="0 0 667.80417 683.95851"
   version="1.1"
   id="svg1"
   xml:space="preserve"
   xmlns="http://www.w3.org/2000/svg"
   xmlns:svg="http://www.w3.org/2000/svg"><defs
     id="defs1" /><g
     id="layer1"
     transform="translate(-5400.9999,-1972.0001)"><path
       style="fill:#f2f2f2;fill-opacity:1;stroke-width:0.612392"
       d="m 6004.2628,2655.2941 c -28.1621,-2.1704 -57.633,-4.6715 -71.0378,-6.0283 -8.0835,-0.8184 -18.6982,-1.8296 -23.5884,-2.2471 l -8.8911,-0.7593 -2.872,2.0245 -2.872,2.0243 -8.7521,-0.7225 c -4.8137,-0.3977 -15.6415,-1.2723 -24.0618,-1.9445 -8.4205,-0.6716 -21.9237,-2.0299 -30.0072,-3.0179 -16.7875,-2.0514 -31.8129,-3.2598 -58.4835,-4.7026 -24.1583,-1.3071 -112.3102,-1.542 -135.9511,-0.3625 -8.5888,0.4283 -24.8479,1.1815 -36.1312,1.6736 -24.0316,1.0482 -35.8144,1.7227 -58.7897,3.3644 -31.0506,2.2184 -45.6623,3.0624 -53.0219,3.0624 h -7.3089 l -3.6967,-2.4154 c -7.8417,-5.1239 -18.7468,-18.2283 -25.5296,-30.6786 -8.131,-14.9248 -15.5064,-32.0919 -20.6431,-48.048 -1.4096,-4.3787 -3.8234,-11.1303 -5.3641,-15.0037 -4.7763,-12.0077 -5.7946,-14.893 -11.9972,-33.9877 -2.6912,-8.2846 -3.7103,-12.4818 -6.8397,-28.1701 -3.338,-16.7331 -5.9468,-34.6063 -6.7044,-45.9295 -1.1809,-17.6563 -0.8581,-54.7604 0.6052,-69.5065 1.8755,-18.9 6.9014,-44.6662 12.8412,-65.8319 3.4735,-12.3773 7.3328,-27.1804 10.0585,-38.581 7.3522,-30.752 16.771,-54.6051 32.1551,-81.4341 6.7744,-11.8147 9.6916,-16.2544 18.9207,-28.7962 10.4228,-14.1643 16.097,-20.8622 30.7588,-36.3089 12.5537,-13.2256 13.7964,-14.7394 17.0909,-20.8212 1.954,-3.6074 4.5371,-8.0745 5.74,-9.9269 11.6213,-17.8974 44.5073,-48.6822 66.665,-62.4053 6.66,-4.1251 9.328,-5.0878 30.7804,-11.1057 29.1806,-8.1857 32.6156,-9.919 41.177,-20.7768 9.4416,-11.9741 15.043,-16.6843 26.187,-22.0191 6.2299,-2.9826 9.5856,-3.6554 19.2895,-3.8676 8.3436,-0.1818 8.6969,-0.065 16.8799,5.6205 11.7754,8.1809 31.99,21.2962 36.4002,23.6169 4.8448,2.5492 4.9953,2.5837 13.1662,3.0173 12.4668,0.6612 26.2893,2.8812 47.4588,7.6211 6.0622,1.3573 18.157,4.6893 30.9257,8.5198 7.9104,2.3729 10.6513,3.2972 19.625,6.6182 6.4744,2.396 11.8456,3.2964 23.4691,3.9334 12.8171,0.7026 21.1053,1.8351 31.4798,4.3009 6.9985,1.6634 19.6509,6.088 21.4367,7.4967 0.5559,0.4388 1.178,0.2611 2.1432,-0.6117 1.9576,-1.7697 18.6205,-11.5252 26.1093,-15.2857 8.5576,-4.2973 19.6505,-7.5479 25.759,-7.5479 2.1937,0 2.5421,0.2638 5.056,3.8276 1.4852,2.1052 8.685,13.2413 16,24.7466 7.3144,11.5055 13.6563,21.2155 14.093,21.5778 0.4365,0.3621 2.9119,1.0639 5.5017,1.5593 6.4333,1.2309 7.8093,2.003 9.4468,5.3021 1.6676,3.3584 1.6785,3.705 0.7519,24.3567 l -0.7237,16.1503 3.3731,6.5514 c 5.103,9.9121 7.0037,21.7728 6.3346,39.5343 -0.6663,17.6927 -4.0174,32.8575 -10.485,47.4441 -3.3729,7.6069 -6.4564,12.6378 -12.0217,19.6129 -11.1438,13.9657 -25.906,25.0589 -41.5993,31.2599 -3.5366,1.3973 -6.5415,2.6481 -6.6774,2.7794 -0.1359,0.1317 1.3392,0.9405 3.2786,1.7981 7.7298,3.4184 14.4103,9.2795 15.6454,13.7263 1.7276,6.2189 -0.4078,13.9523 -4.991,18.0728 -6.2586,5.6273 -18.9033,10.1406 -28.3831,10.1316 -6.7602,0 -17.9896,-2.6009 -23.0807,-5.3326 -9.1528,-4.9113 -12.3687,-9.5826 -12.4134,-18.0305 -0.023,-4.2562 0.1484,-4.9366 1.8359,-7.341 2.2039,-3.1383 6.5823,-6.6306 11.4589,-9.139 1.9367,-0.9964 3.5213,-1.9375 3.5213,-2.0918 0,-0.1547 -1.5846,-0.7183 -3.5213,-1.2535 -13.3387,-3.6869 -16.1626,-4.6818 -23.4241,-8.2516 -7.114,-3.4975 -15.1231,-9.1675 -20.6553,-14.6227 -2.7714,-2.733 -5.4078,-4.9691 -5.8585,-4.9691 -0.4505,0 -2.0147,2.4113 -3.4758,5.3583 -1.4612,2.9473 -4.2243,8.1143 -6.1407,11.4826 -1.916,3.368 -4.8047,8.604 -6.4193,11.6355 -1.6143,3.0311 -3.5528,6.6139 -4.3077,7.961 -0.7549,1.3472 -2.8143,5.2053 -4.5767,8.5736 -4.5525,8.7014 -10.9057,19.9764 -12.1312,21.5292 l -1.0421,1.3206 -11.8827,-3.9498 c -6.5355,-2.1723 -12.2748,-3.869 -12.7542,-3.7703 -1.3501,0.2786 -12.8838,27.1733 -19.1174,44.5784 -1.7492,4.8839 -3.6198,9.9819 -4.1569,11.3293 -0.8337,2.0909 -0.989,6.1708 -1.0609,27.864 -0.088,26.4958 -0.3353,30.3261 -3.9767,61.5453 -1.3053,11.1905 -5.9733,46.3595 -6.4215,48.3792 -0.1505,0.6736 -1.1051,6.5984 -2.1236,13.1665 -1.0183,6.5676 -2.5517,15.6452 -3.4076,20.1716 -0.8558,4.5265 -1.3465,8.4149 -1.0904,8.6401 0.2563,0.2255 4.8752,0.8751 10.2642,1.4433 13.3205,1.4044 38.9845,4.5854 42.7347,5.2964 1.6806,0.3186 3.149,0.5795 3.2629,0.5795 0.4269,0 2.5555,5.4138 4.5219,11.5009 1.1186,3.463 2.2298,6.2185 2.4689,6.124 0.2394,-0.094 2.9885,-2.9276 6.1092,-6.2956 3.121,-3.3681 6.7974,-7.3193 8.1701,-8.7797 3.2717,-3.4816 6.1792,-4.8967 12.9183,-6.2875 8.5589,-1.7663 10.6194,-1.6018 13.8591,1.1073 6.4495,5.3936 14.3871,13.7431 17.7981,18.7219 4.6401,6.7732 9.2502,12.5565 16.2188,20.3463 3.0131,3.368 7.174,8.1905 9.2461,10.7167 2.0722,2.5262 8.4176,9.3347 14.1012,15.1301 8.0853,8.2456 11.0579,10.8749 13.6654,12.0888 1.8334,0.8534 3.8845,1.5558 4.5581,1.5613 0.6735,0 1.9736,0.4005 2.8893,0.878 0.9154,0.4779 3.809,1.6202 6.4301,2.539 5.928,2.0777 13.6189,5.874 14.9662,7.3869 0.5586,0.627 3.3836,5.9351 6.2771,11.7955 5.4185,10.9724 6.2054,13.8476 4.4466,16.2525 -1.1208,1.5322 -4.5735,1.6543 -17.8623,0.6301 z m -253.4327,-133.9413 c -0.4635,-6.7464 -1.3543,-23.7285 -2.2411,-42.7142 -1.1224,-24.038 -1.819,-37.346 -2.5483,-48.6853 -0.3899,-6.0628 -0.6991,-19.8416 -0.687,-30.6196 0.027,-24.1625 1.4648,-37.4415 6.0155,-55.5571 0.8952,-3.5633 0.9389,-4.9203 0.326,-10.1045 -2.2344,-18.8983 -1.241,-34.9018 4.031,-64.943 0.8882,-5.0618 0.9568,-6.5239 0.3512,-7.4935 -1.1099,-1.7774 -0.9268,-4.3373 0.7358,-10.2872 5.3725,-19.2238 14.4689,-56.0636 13.9584,-56.5294 -0.2435,-0.2222 -4.8522,-1.0095 -10.2412,-1.7498 -5.389,-0.7403 -15.9197,-2.5628 -23.4015,-4.05 -7.4817,-1.4874 -14.1777,-2.7044 -14.8799,-2.7044 -0.7024,0 -9.5998,2.7378 -19.7722,6.084 -36.7788,12.0979 -43.2808,14.1252 -45.3082,14.1252 -1.1337,0 -4.1075,-0.7014 -6.6084,-1.5588 -5.8717,-2.0127 -8.2537,-2.0849 -11.6209,-0.3514 -7.5657,3.8943 -13.386,13.821 -16.1976,27.6251 -1.3323,6.5422 -1.0022,9.858 1.7483,17.5543 6.0254,16.8605 8.9904,39.1652 7.1624,53.8795 -1.4207,11.4346 -7.0969,31.0316 -10.8842,37.5775 -3.5434,6.1241 -9.4317,12.7191 -21.0501,23.577 -17.3235,16.1896 -22.5578,21.3863 -23.2678,23.1008 -0.7231,1.7456 -0.5858,3.0321 1.2585,11.7814 3.42,16.2252 3.3284,34.8442 -0.2918,59.4374 -1.5246,10.3564 -7.1808,43.6038 -9.5651,56.2232 -0.689,3.6471 -1.0944,6.789 -0.9008,6.9826 0.1944,0.1944 10.4949,0 22.8919,-0.4503 20.7292,-0.7378 68.8766,-0.5536 80.9721,0.3098 2.1892,0.1568 9.4919,0.577 16.2282,0.9349 13.0766,0.6943 54.297,3.5428 56.3403,3.8934 0.6735,0.115 2.712,0.2478 4.5302,0.2935 l 3.3053,0.084 z"
       id="path29-3-1" /></g></svg>
