<?xml version="1.0" encoding="UTF-8" standalone="no"?>
<!-- Created with Inkscape (http://www.inkscape.org/) -->

<svg
   width="126.60824mm"
   height="157.21698mm"
   viewBox="0 0 478.51934 594.20588"
   version="1.1"
   id="svg1"
   xml:space="preserve"
   inkscape:version="1.4 (e7c3feb100, 2024-10-09)"
   sodipodi:docname="imagewhite.svg"
   xmlns:inkscape="http://www.inkscape.org/namespaces/inkscape"
   xmlns:sodipodi="http://sodipodi.sourceforge.net/DTD/sodipodi-0.dtd"
   xmlns="http://www.w3.org/2000/svg"
   xmlns:svg="http://www.w3.org/2000/svg"><sodipodi:namedview
     id="namedview1"
     pagecolor="#505050"
     bordercolor="#eeeeee"
     borderopacity="1"
     inkscape:showpageshadow="0"
     inkscape:pageopacity="0"
     inkscape:pagecheckerboard="0"
     inkscape:deskcolor="#505050"
     inkscape:document-units="mm"
     inkscape:zoom="0.72871772"
     inkscape:cx="234.65877"
     inkscape:cy="249.75377"
     inkscape:window-width="1921"
     inkscape:window-height="1022"
     inkscape:window-x="0"
     inkscape:window-y="0"
     inkscape:window-maximized="1"
     inkscape:current-layer="layer1"><inkscape:page
       x="0"
       y="0"
       width="478.51935"
       height="594.20587"
       id="page2"
       margin="0"
       bleed="0" /></sodipodi:namedview><defs
     id="defs1" /><g
     inkscape:label="Layer 1"
     inkscape:groupmode="layer"
     id="layer1"
     transform="translate(-3966,-1198.523)"><path
       style="fill:#64ba2e;fill-opacity:1;stroke-width:0.292934"
       d="m 4254.5671,1792.411 c -13.4712,-1.0382 -27.5684,-2.2345 -33.9805,-2.8836 -3.8667,-0.3915 -8.9442,-0.8752 -11.2834,-1.0749 l -4.253,-0.3632 -1.3738,0.9684 -1.3738,0.9684 -4.1865,-0.3457 c -2.3026,-0.1901 -7.482,-0.6086 -11.5098,-0.93 -4.0279,-0.3214 -10.4871,-0.9711 -14.3538,-1.4436 -8.0302,-0.9814 -15.2175,-1.5593 -27.9752,-2.2495 -11.556,-0.6252 -53.7229,-0.7377 -65.0314,-0.1735 -4.1084,0.205 -11.8858,0.5653 -17.2831,0.8007 -11.4954,0.5014 -17.1316,0.824 -28.1217,1.6092 -14.8529,1.0613 -21.8423,1.465 -25.3627,1.465 h -3.4962 l -1.7683,-1.1554 c -3.751,-2.451 -8.9674,-8.7194 -12.2119,-14.6749 -3.8894,-7.1392 -7.4174,-15.351 -9.8745,-22.9835 -0.6743,-2.0945 -1.8289,-5.3241 -2.5659,-7.1769 -2.2847,-5.7439 -2.7718,-7.124 -5.7388,-16.2578 -1.2873,-3.9629 -1.7748,-5.9706 -3.2717,-13.475 -1.5967,-8.0042 -2.8446,-16.5538 -3.207,-21.9701 -0.5649,-8.4458 -0.4105,-26.1943 0.2895,-33.248 0.8971,-9.0407 3.3012,-21.3658 6.1425,-31.4904 1.6615,-5.9206 3.5076,-13.0015 4.8114,-18.4549 3.5169,-14.7101 8.0223,-26.12 15.3812,-38.9536 3.2405,-5.6514 4.6359,-7.7751 9.0506,-13.7745 4.9857,-6.7754 7.6999,-9.9793 14.7133,-17.3681 6.005,-6.3264 6.5994,-7.0505 8.1753,-9.9597 0.9347,-1.7256 2.1703,-3.8624 2.7457,-4.7485 5.559,-8.5611 21.2898,-23.2868 31.8888,-29.8512 3.1858,-1.9732 4.462,-2.4336 14.7236,-5.3122 13.9584,-3.9156 15.6015,-4.7447 19.6968,-9.9385 4.5163,-5.7278 7.1957,-7.9808 12.5264,-10.5328 2.98,-1.4267 4.5852,-1.7485 9.227,-1.85 3.9911,-0.087 4.1601,-0.031 8.0744,2.6885 5.6327,3.9133 15.3022,10.187 17.4118,11.297 2.3175,1.2194 2.3895,1.2359 6.298,1.4433 5.9634,0.3164 12.5753,1.3782 22.7016,3.6455 2.8998,0.6493 8.6853,2.2432 14.7931,4.0754 3.7839,1.1351 5.095,1.5773 9.3875,3.1658 3.097,1.1462 5.6663,1.5768 11.2263,1.8816 6.131,0.3361 10.0956,0.8778 15.0582,2.0573 3.3477,0.7957 9.3999,2.9122 10.2541,3.586 0.2659,0.2098 0.5635,0.1249 1.0252,-0.2926 0.9364,-0.8465 8.907,-5.5131 12.4892,-7.3119 4.0935,-2.0556 9.3997,-3.6104 12.3217,-3.6104 1.0493,0 1.216,0.1262 2.4185,1.8309 0.7104,1.0069 4.1544,6.3338 7.6535,11.8374 3.4988,5.5036 6.5324,10.1483 6.7413,10.3216 0.2088,0.1732 1.3929,0.5089 2.6317,0.7459 3.0773,0.5888 3.7355,0.9581 4.5188,2.5362 0.7977,1.6065 0.8029,1.7723 0.3597,11.6509 l -0.3462,7.7254 1.6135,3.1338 c 2.441,4.7414 3.3502,10.4149 3.0301,18.911 -0.3187,8.4632 -1.9217,15.7172 -5.0154,22.6946 -1.6134,3.6387 -3.0884,6.0451 -5.7505,9.3817 -5.3306,6.6804 -12.392,11.9868 -19.8988,14.953 -1.6917,0.6684 -3.1291,1.2667 -3.1941,1.3295 -0.065,0.063 0.6406,0.4499 1.5683,0.8601 3.6975,1.6352 6.8931,4.4388 7.4839,6.5659 0.8264,2.9748 -0.1951,6.674 -2.3874,8.645 -2.9938,2.6917 -9.0423,4.8507 -13.5769,4.8464 -3.2337,0 -8.6052,-1.2441 -11.0405,-2.5508 -4.3782,-2.3493 -5.9165,-4.5838 -5.9379,-8.6248 -0.011,-2.0359 0.071,-2.3614 0.8782,-3.5115 1.0542,-1.5012 3.1486,-3.1717 5.4813,-4.3716 0.9264,-0.4766 1.6844,-0.9268 1.6844,-1.0006 0,-0.074 -0.758,-0.3436 -1.6844,-0.5996 -6.3805,-1.7636 -7.7313,-2.2395 -11.2048,-3.9471 -3.4029,-1.673 -7.234,-4.3852 -9.8803,-6.9947 -1.3257,-1.3073 -2.5868,-2.3769 -2.8024,-2.3769 -0.2155,0 -0.9637,1.1534 -1.6626,2.5631 -0.699,1.4098 -2.0207,3.8814 -2.9374,5.4926 -0.9165,1.6111 -2.2983,4.1157 -3.0706,5.5657 -0.7722,1.45 -1.6995,3.1637 -2.0606,3.8082 -0.3611,0.6444 -1.3462,2.4899 -2.1892,4.101 -2.1777,4.1624 -5.2167,9.5557 -5.8029,10.2985 l -0.4985,0.6317 -5.684,-1.8895 c -3.1262,-1.0391 -5.8716,-1.8507 -6.1009,-1.8034 -0.6458,0.1333 -6.1629,12.9982 -9.1447,21.3238 -0.8367,2.3362 -1.7315,4.7748 -1.9884,5.4193 -0.3988,1.0002 -0.4731,2.9517 -0.5075,13.3285 -0.042,12.6742 -0.1604,14.5063 -1.9022,29.4399 -0.6244,5.3528 -2.8573,22.1757 -3.0717,23.1418 -0.072,0.3222 -0.5286,3.1563 -1.0158,6.2981 -0.4871,3.1417 -1.2206,7.4838 -1.63,9.649 -0.4094,2.1653 -0.6441,4.0252 -0.5216,4.133 0.1226,0.1079 2.332,0.4186 4.9098,0.6903 6.3718,0.6719 18.648,2.1934 20.4419,2.5336 0.8039,0.1524 1.5063,0.2772 1.5608,0.2772 0.2042,0 1.2224,2.5897 2.163,5.5014 0.5351,1.6564 1.0666,2.9746 1.181,2.9294 0.1145,-0.045 1.4295,-1.4004 2.9223,-3.0115 1.4929,-1.6112 3.2515,-3.5011 3.9081,-4.1998 1.565,-1.6653 2.9558,-2.3422 6.1794,-3.0075 4.0941,-0.845 5.0797,-0.7662 6.6294,0.5297 3.0851,2.5799 6.882,6.5738 8.5136,8.9555 2.2196,3.2398 4.4248,6.0062 7.7582,9.7324 1.4413,1.6111 3.4316,3.918 4.4228,5.1263 0.9912,1.2084 4.0265,4.4652 6.7452,7.2375 3.8676,3.9442 5.2895,5.2019 6.5368,5.7826 0.877,0.4081 1.8581,0.7442 2.1803,0.7468 0.3222,0 0.9441,0.1916 1.3821,0.42 0.4379,0.2285 1.822,0.775 3.0758,1.2145 2.8356,0.9938 6.5145,2.8097 7.159,3.5335 0.2672,0.2999 1.6185,2.8389 3.0026,5.6423 2.5919,5.2486 2.9683,6.6238 2.127,7.7743 -0.5361,0.7329 -2.1877,0.7912 -8.5443,0.3013 z m -121.228,-64.07 c -0.2217,-3.2271 -0.6478,-11.3504 -1.072,-20.4321 -0.5369,-11.4984 -0.8701,-17.8642 -1.219,-23.2883 -0.1865,-2.9001 -0.3344,-9.4911 -0.3286,-14.6467 0.013,-11.558 0.7007,-17.9099 2.8775,-26.5754 0.4282,-1.7045 0.4491,-2.3536 0.1559,-4.8334 -1.0688,-9.0399 -0.5936,-16.6951 1.9282,-31.0651 0.4249,-2.4213 0.4577,-3.1207 0.168,-3.5845 -0.5309,-0.8502 -0.4433,-2.0747 0.352,-4.9208 2.5699,-9.1956 6.9211,-26.8177 6.6769,-27.0405 -0.1165,-0.1063 -2.321,-0.4829 -4.8988,-0.837 -2.5778,-0.3541 -7.6151,-1.2259 -11.194,-1.9373 -3.5788,-0.7115 -6.7818,-1.2936 -7.1177,-1.2936 -0.336,0 -4.592,1.3096 -9.4579,2.9102 -17.5929,5.787 -20.7031,6.7567 -21.6729,6.7567 -0.5423,0 -1.9648,-0.3355 -3.1611,-0.7456 -2.8087,-0.9628 -3.9481,-0.9973 -5.5588,-0.1681 -3.619,1.8628 -6.4031,6.6112 -7.748,13.2143 -0.6373,3.1294 -0.4794,4.7155 0.8363,8.397 2.8822,8.0651 4.3005,18.7344 3.4261,25.7729 -0.6796,5.4697 -3.3948,14.8439 -5.2064,17.975 -1.695,2.9294 -4.5116,6.0841 -10.0692,11.2779 -8.2866,7.7443 -10.7904,10.2301 -11.13,11.0501 -0.3459,0.835 -0.2802,1.4505 0.602,5.6357 1.6359,7.7611 1.5921,16.6675 -0.1396,28.4315 -0.7293,4.9539 -3.4349,20.8575 -4.5754,26.894 -0.3296,1.7445 -0.5235,3.2475 -0.4309,3.3401 0.093,0.093 5.0202,0 10.9502,-0.2154 9.9157,-0.3529 32.9467,-0.2648 38.7325,0.1482 1.0472,0.075 4.5404,0.276 7.7627,0.4471 6.2551,0.3322 25.9726,1.6948 26.95,1.8625 0.3222,0.055 1.2973,0.1184 2.167,0.1404 l 1.5811,0.04 z"
       id="path29-3"
       sodipodi:nodetypes="ssscccsssssssscsssssssssssssssssssssssssssssssssssssscssssssssssssssssssssssssscsssssssssssssssssssssssscsssssssssssssssssssssssssssssssssssssscs" /><path
       d="m 4179.3395,1448.1908 -1.5379,-1.4309 v -3.355 -3.3549 l -5.833,0.031 c -3.2082,0.017 -5.9374,-0.073 -6.0649,-0.1999 -0.4075,-0.4053 0.7301,-4.908 1.6342,-6.4686 1.6067,-2.7732 2.1207,-3.2285 4.0104,-3.5526 l 1.7129,-0.2938 -0.052,-1.0252 c -0.029,-0.5639 -0.1375,-1.4208 -0.2417,-1.9041 -0.128,-0.5938 0.1409,-2.0493 0.8291,-4.4873 0.5601,-1.9847 1.0884,-3.6785 1.174,-3.764 0.4392,-0.4393 2.6553,0.3496 4.0084,1.427 1.8261,1.4539 2.9172,3.4828 3.3416,6.2131 0.3038,1.9548 0.3504,2.0372 1.34,2.3696 1.2572,0.4223 1.33,0.8532 0.1465,0.8674 -0.7393,0.01 -0.8788,0.1269 -0.8788,0.7429 0,0.6276 0.2306,0.809 1.6111,1.2676 1.4014,0.4656 1.84,0.4902 3.3688,0.1889 3.7043,-0.7301 7.1068,-0.2294 9.5936,1.4117 0.6041,0.3987 1.0985,0.896 1.0985,1.1052 0,0.2091 -1.009,1.2603 -2.2423,2.3358 -1.2333,1.0756 -2.568,2.3428 -2.9662,2.8159 -0.3981,0.4732 -1.2321,1.1197 -1.8533,1.4365 l -1.1293,0.5762 -0.902,-0.9439 c -1.1485,-1.2017 -1.415,-0.8271 -1.1301,1.5886 0.2225,1.887 0.016,2.6039 -1.1221,3.8898 -1.1827,1.3368 -5.1618,3.9602 -5.99,3.9492 -0.213,0 -1.0793,-0.649 -1.9252,-1.436 z"
       style="fill:#64ba2e;fill-opacity:1;stroke-width:0.292934"
       id="path32-5"
       sodipodi:nodetypes="cccccccsccsccccscscssscccccscccc" /><path
       d="m 4153.1116,1395.9132 c -0.8713,-0.5585 -1.6595,-1.602 -1.868,-2.4732 -0.2205,-0.9215 -0.4779,-1.1865 -1.3268,-1.3657 -1.6157,-0.3413 -3.4488,-1.5584 -4.5024,-2.9895 -1.2663,-1.7202 -1.5522,-2.3964 -1.9099,-4.5175 -0.4637,-2.7489 0.3783,-8.3753 2.3377,-15.6217 0.1327,-0.4904 0.1967,-0.9361 0.1423,-0.9903 -0.2237,-0.2238 -0.9249,0.2532 -1.3979,0.9509 -1.7974,2.651 -2.1617,3.133 -2.4558,3.2495 -0.7147,0.2828 -0.7972,-0.3065 -0.3911,-2.7985 0.2209,-1.3554 0.3512,-2.5147 0.2896,-2.5763 -0.062,-0.062 -1.8671,0.4646 -4.0124,1.1693 -6.7893,2.2303 -7.8705,2.4501 -10.9684,2.2303 -5.2947,-0.3756 -14.5828,-1.4117 -16.1382,-1.8002 l -1.59,-0.397 0.017,-0.9425 c 0.032,-1.7527 0.1041,-1.8081 2.1503,-1.6375 l 1.8087,0.1509 0.2422,-4.2314 c 0.3295,-5.7588 0.9986,-7.7338 4.2731,-12.6132 2.726,-4.0621 4.3556,-5.4967 7.242,-6.3758 1.4293,-0.4353 1.9522,-0.4712 4.9824,-0.3421 1.862,0.079 3.687,0.2133 4.0555,0.2976 l 0.6701,0.1532 -0.4384,-0.7544 c -0.241,-0.4148 -0.5695,-0.8063 -0.7299,-0.8699 -0.4218,-0.1671 -2.9799,-3.6211 -3.7157,-5.0167 -0.5497,-1.043 -0.6255,-1.4448 -0.6172,-3.2746 0.01,-1.6309 0.1127,-2.2877 0.4833,-3.0126 0.2607,-0.5098 0.9113,-1.784 1.4459,-2.8318 1.2385,-2.4269 2.3522,-5.8544 3.1463,-9.6821 0.8038,-3.8749 1.2017,-4.8873 2.2549,-5.7381 1.8321,-1.48 4.4779,-0.5953 8.9077,2.9786 2.854,2.3026 6.1948,6.2861 7.5616,9.0165 1.8181,3.6318 2.8261,8.835 3.6589,18.8868 0.2885,3.4807 0.3946,3.9396 0.9119,3.9396 0.3021,0 0.4634,-0.2431 0.5769,-0.869 0.4297,-2.3704 2.756,-8.8603 3.0651,-8.5512 0.1353,0.1354 -1.4633,7.2655 -1.9179,8.5539 -0.4534,1.2849 -0.4138,1.5615 0.2229,1.5615 0.5689,0 2.6711,-0.6317 4.0857,-1.2276 1.2378,-0.5215 2.3174,-0.7084 2.3174,-0.4012 0,0.1441 -0.3389,0.4047 -0.7532,0.5789 -2.948,1.2406 -4.152,1.9515 -4.0669,2.4014 0.1509,0.7967 2.3433,0.4793 6.2105,-0.8991 0.6198,-0.2208 5.0779,-1.2293 6.5899,-1.4906 2.1184,-0.3662 5.742,-0.5119 8.0098,-0.3221 4.6686,0.3907 8.1056,1.3495 12.3207,3.4373 3.3936,1.6809 5.5368,3.7243 5.8763,5.6028 0.1449,0.802 0.1009,0.8788 -0.8952,1.5642 -0.5762,0.3964 -1.1015,0.7209 -1.1673,0.7209 -0.2065,0 -2.9624,1.6333 -4.8951,2.9012 -1.899,1.2457 -4.185,3.375 -8.4641,7.8834 -2.1706,2.287 -2.5648,2.5998 -3.7227,2.9546 -2.6303,0.8062 -4.3343,0.4287 -8.7086,-1.9294 -1.2113,-0.6531 -2.2511,-1.1388 -2.3106,-1.0793 -0.059,0.059 0.2487,0.9929 0.6847,2.0741 1.1368,2.8191 1.4182,4.1565 1.426,6.7774 0.01,2.1286 -0.053,2.4436 -0.7265,3.8654 -1.2143,2.5632 -4.0907,6.1957 -6.1862,7.8124 -0.688,0.5308 -2.3847,1.5503 -3.7703,2.2655 -1.3856,0.7153 -2.9886,1.6177 -3.5621,2.0054 -1.135,0.7672 -2.7946,2.4478 -3.4162,3.4595 -0.464,0.7552 -0.4468,0.7529 -1.3421,0.1791 z"
       style="fill:#64ba2e;fill-opacity:1;stroke-width:0.23174"
       id="path1" /><path
       d="m 4057.3175,1429.4613 c -0.094,-0.2447 -0.1707,-0.97 -0.1707,-1.6119 0,-1.5398 -0.3956,-2.2119 -1.4364,-2.4405 -1.7057,-0.3747 -5.149,-4.8588 -6.1906,-8.062 -0.7246,-2.2281 -0.5345,-3.8272 0.6909,-5.8124 1.3282,-2.1519 1.3615,-2.5197 0.2072,-2.2889 -0.4786,0.096 -1.7355,0.2627 -2.7931,0.3711 -2.2664,0.2322 -2.4103,0.1365 -5.117,-3.4012 -0.9245,-1.2084 -2.6891,-3.0992 -3.9214,-4.2019 -3.2117,-2.8737 -3.2298,-3.5126 -0.1559,-5.4852 2.093,-1.3431 4.6611,-2.0427 8.2005,-2.2341 2.6924,-0.1457 3.3746,-0.082 5.1264,0.4784 1.1114,0.3555 2.6939,1.0228 3.5167,1.4829 1.5417,0.8622 3.6344,1.4307 3.625,0.9847 0,-0.1387 -0.3984,-0.8323 -0.8788,-1.5413 -0.4804,-0.709 -0.8688,-1.5658 -0.8631,-1.9041 l 0.01,-0.615 0.3558,0.6068 c 0.1957,0.3337 0.8781,1.2235 1.5164,1.9773 1.9196,2.267 2.9012,1.7323 2.6945,-1.4676 -0.044,-0.6749 0.027,-1.1614 0.1566,-1.0813 0.1297,0.08 0.2359,0.3871 0.2359,0.6819 0,0.2949 0.2453,0.8391 0.5451,1.2093 l 0.545,0.6731 0.3133,-1.0068 c 0.1723,-0.5538 0.405,-1.6 0.5171,-2.3251 0.2965,-1.9175 1.2082,-4.6223 2.0317,-6.0275 1.8358,-3.1324 4.7879,-5.9448 7.6187,-7.2579 2.7684,-1.2843 3.3687,-1.1562 3.3687,0.7187 0,1.98 1.1471,7.8308 1.8972,9.6768 1.1958,2.9429 0.8709,4.7803 -1.0872,6.1485 -1.077,0.7525 -1.9817,1.69 -1.9817,2.0535 0,0.2385 0.3961,0.3551 2.2546,0.6634 3.8795,0.6434 5.8182,3.8416 6.2557,10.3198 0.1319,1.9539 0.4382,4.0272 0.6806,4.6073 0.4959,1.1868 0.468,1.2255 -1.0965,1.519 -0.6207,0.1164 -1.6742,0.5139 -2.3412,0.8833 -3.1287,1.7325 -5.81,1.1302 -9.8085,-2.2034 -0.6696,-0.5582 -1.2175,-1.164 -1.2175,-1.346 0,-0.182 -0.2609,-0.5671 -0.5798,-0.8557 -0.6485,-0.5869 -0.7916,-0.4105 -0.9455,1.1662 -0.064,0.6592 -0.2525,0.9025 -0.7528,0.9734 -0.5199,0.074 -0.736,-0.1037 -0.9806,-0.8055 -0.2805,-0.8045 -0.8339,-1.2487 -0.8478,-0.6805 -0.035,1.4248 -0.9792,6.5057 -1.3573,7.3025 -0.2711,0.5712 -1.5583,2.6403 -2.8606,4.598 -3.763,5.657 -4.5888,6.579 -4.9799,5.5599 z"
       style="fill:#64ba2e;fill-opacity:1;stroke-width:0.292934"
       id="path1-6" /><path
       d="m 4210.156,1311.2625 2.0473,-0.4703 1.6775,-2.9055 1.6774,-2.9054 5.0361,2.9433 c 2.7698,1.6189 5.1784,2.9055 5.3523,2.8594 0.5555,-0.1473 1.8217,-4.6155 1.819,-6.4191 0,-3.205 -0.2223,-3.8563 -1.6968,-5.0818 l -1.3365,-1.1109 0.5576,-0.8619 c 0.3071,-0.4738 0.8295,-1.1617 1.1614,-1.5281 0.4077,-0.4503 0.9026,-1.8452 1.5256,-4.3007 0.5073,-1.9989 0.8967,-3.7299 0.8653,-3.8467 -0.1607,-0.6001 -2.4744,-1.0249 -4.1849,-0.7684 -2.3084,0.3461 -4.2677,1.5576 -6.0004,3.7099 -1.2405,1.541 -1.3221,1.5891 -2.3453,1.3821 -1.2999,-0.2628 -1.5784,0.074 -0.5606,0.678 0.6353,0.3783 0.6976,0.5493 0.3896,1.0827 -0.3138,0.5436 -0.6042,0.5854 -2.029,0.2923 -1.4465,-0.2975 -1.8386,-0.4955 -3.0119,-1.5208 -2.843,-2.4845 -6.04,-3.7521 -9.0142,-3.5743 -0.7225,0.043 -1.3993,0.2267 -1.5039,0.4079 -0.1046,0.1811 0.2437,1.596 0.774,3.144 0.5302,1.5482 1.0525,3.3129 1.1608,3.9218 0.1082,0.6088 0.5072,1.5857 0.8868,2.1707 l 0.6899,1.0636 1.2531,-0.3664 c 1.5955,-0.4665 1.639,-0.01 0.1844,1.9408 -1.1362,1.5229 -1.3158,2.247 -0.9731,3.9297 0.3558,1.7491 2.4901,6.0105 3.2128,6.4151 0.1845,0.1065 1.2592,-0.022 2.3853,-0.281 z"
       style="fill:#64ba2e;fill-opacity:1;stroke-width:0.292934"
       id="path32-5-2"
       sodipodi:nodetypes="cccccccsccsccccscscssscccccscccc" /><path
       d="m 4337.4736,1293.2937 c 1.5122,0.3309 3.4496,0.061 4.5915,-0.64 1.208,-0.7416 1.7605,-0.7497 2.848,-0.042 2.07,1.348 5.2961,1.9996 7.9241,1.6004 3.1589,-0.4803 4.1766,-0.893 6.7985,-2.7581 3.3978,-2.4173 8.4581,-9.2587 14.0503,-18.9957 0.3784,-0.6589 0.7822,-1.198 0.8971,-1.198 0.4732,3e-4 0.7103,1.2463 0.4727,2.4844 -0.9029,4.705 -1.0274,5.6003 -0.8395,6.0344 0.4569,1.0553 1.1674,0.5189 3.3736,-2.5464 1.1999,-1.6672 2.2883,-3.0311 2.4185,-3.0311 0.1306,5e-4 1.4836,2.4662 3.0072,5.4808 4.8223,9.5399 5.7332,10.9159 9.2425,13.96 5.9973,5.2029 16.9173,13.9312 18.9733,15.1654 l 2.1016,1.2619 0.9794,-1.0146 c 1.8208,-1.8868 1.8023,-2.0224 -0.5424,-4.0061 l -2.0727,-1.7536 4.2195,-4.7316 c 5.7425,-6.4395 7.1238,-9.2364 8.8212,-17.8608 1.4131,-7.1796 1.207,-10.4206 -0.9162,-14.4034 -1.0514,-1.9723 -1.5663,-2.5633 -4.908,-5.6317 -2.0532,-1.886 -4.1254,-3.6743 -4.6042,-3.9749 l -0.8708,-0.5465 1.2607,-0.3378 c 0.693,-0.1856 1.4553,-0.2498 1.6921,-0.1477 0.6229,0.2693 6.9817,-0.678 9.2361,-1.376 1.6844,-0.5222 2.1898,-0.8667 4.1164,-2.8108 1.7141,-1.7359 2.3005,-2.5389 2.6753,-3.6976 0.2635,-0.8151 0.9232,-2.8507 1.4661,-4.5244 1.2569,-3.8768 3.704,-8.6801 6.9127,-13.5686 3.2482,-4.9488 3.8982,-6.4404 3.6842,-8.4543 -0.3725,-3.5034 -4.1066,-5.3659 -12.5721,-6.2711 -5.4542,-0.5835 -13.2011,0.096 -17.5348,1.5386 -5.7643,1.9184 -12.3337,6.3558 -23.8465,16.1065 -3.9869,3.3767 -4.5845,3.7497 -5.1315,3.2026 -0.3195,-0.3196 -0.2326,-0.7473 0.309,-1.5295 2.0526,-2.9617 6.4564,-12.2864 5.8027,-12.2864 -0.2865,-5e-4 -6.1369,9.2325 -7.0189,11.0759 -0.8794,1.8386 -1.2138,2.0894 -1.8875,1.4159 -0.6016,-0.6018 -2.157,-3.4934 -3.0228,-5.6199 -0.7577,-1.8609 -1.702,-3.2003 -2.027,-2.8754 -0.1523,0.1523 -0.07,0.7865 0.1846,1.409 1.8059,4.4302 2.3274,6.4558 1.7623,6.8413 -1.0024,0.6831 -2.9855,-1.9714 -5.6181,-7.5198 -0.4218,-0.8892 -4.0704,-6.6713 -5.3934,-8.5469 -1.8534,-2.6277 -5.5317,-6.6147 -8.1311,-8.8125 -5.3514,-4.525 -10.0008,-7.1459 -16.6674,-9.396 -5.3673,-1.8116 -9.7954,-1.917 -12.1413,-0.2894 -1.0017,0.695 -1.0363,0.823 -0.7078,2.6015 0.1902,1.0286 0.4021,1.9276 0.4723,1.9969 0.2179,0.2186 1.4055,4.8611 2.1098,8.2462 0.6908,3.3261 0.8567,7.9961 0.614,17.2905 -0.1228,4.7149 -0.037,5.4627 0.8125,7.0629 1.9293,3.6348 4.1308,5.0377 11.2519,7.1702 1.9719,0.5904 3.5851,1.1765 3.5853,1.3024 -2e-4,0.126 -1.3132,0.787 -2.9179,1.4697 -4.1842,1.7791 -5.8965,2.8962 -8.6768,5.6599 -2.2625,2.2406 -2.5285,2.6407 -3.3201,4.8569 -1.4267,3.9956 -2.2264,10.88 -1.7199,14.8064 0.1664,1.2891 0.8826,4.1621 1.5915,6.384 0.7081,2.2225 1.4503,4.8721 1.6456,5.8891 0.3894,2.0119 0.367,5.5448 -0.045,7.2725 -0.3081,1.2894 -0.3237,1.2689 1.2302,1.6087 z"
       style="fill:#64ba2e;fill-opacity:1;stroke-width:0.34664"
       id="path1-7" /><path
       d="m 4247.2395,1349.6901 c 0.1066,-0.2395 0.5652,-0.8066 1.0191,-1.2605 1.0888,-1.0888 1.2843,-1.8437 0.71,-2.7413 -0.9411,-1.4711 -0.2052,-7.0766 1.3233,-10.0782 1.0631,-2.0878 2.3283,-3.0841 4.5985,-3.6214 2.4608,-0.5824 2.7444,-0.819 1.765,-1.472 -0.4063,-0.2705 -1.4129,-1.0414 -2.2374,-1.7126 -1.7668,-1.4384 -1.8009,-1.6078 -1.2132,-6.0233 0.2007,-1.5082 0.2899,-4.0929 0.1983,-5.744 -0.239,-4.303 0.2,-4.7676 3.7684,-3.9889 2.4297,0.5303 4.7403,1.8515 7.3784,4.2189 2.0068,1.8008 2.4441,2.3282 3.2866,3.9632 0.5345,1.0373 1.1816,2.6281 1.4381,3.5352 0.4805,1.6999 1.5583,3.5816 1.867,3.2596 0.098,-0.098 0.3068,-0.8702 0.4684,-1.7113 0.1617,-0.841 0.4929,-1.7215 0.7361,-1.9567 l 0.442,-0.4278 -0.1775,0.6807 c -0.098,0.3743 -0.2442,1.486 -0.3259,2.4704 -0.2457,2.9604 0.8265,3.2764 2.943,0.8676 0.4461,-0.5084 0.8404,-0.8022 0.8754,-0.6539 0.035,0.1483 -0.107,0.4405 -0.3154,0.649 -0.2085,0.2085 -0.4199,0.7668 -0.4697,1.2405 l -0.091,0.8613 0.9335,-0.4903 c 0.5134,-0.2698 1.4178,-0.845 2.0097,-1.2785 1.5656,-1.1462 4.1228,-2.4141 5.6988,-2.8254 3.513,-0.9169 7.5891,-0.8181 10.5193,0.2551 2.8657,1.0494 3.1996,1.5645 1.8738,2.8902 -1.4,1.4001 -4.7261,6.3484 -5.501,8.1841 -1.2354,2.9265 -2.7643,3.996 -5.1164,3.5789 -1.2936,-0.2295 -2.5963,-0.2063 -2.8533,0.051 -0.1687,0.1687 0.029,0.5312 1.1251,2.0634 2.2883,3.1981 1.3977,6.8305 -2.8737,11.7206 -1.2884,1.4749 -2.5378,3.1575 -2.7766,3.7391 -0.4885,1.1899 -0.5356,1.1975 -1.8494,0.2988 -0.5213,-0.3566 -1.5473,-0.8205 -2.2801,-1.0309 -3.4374,-0.9873 -4.9075,-3.3091 -5.3776,-8.4937 -0.079,-0.8682 -0.038,-1.684 0.091,-1.8127 0.1287,-0.1287 0.2166,-0.5855 0.1951,-1.015 -0.044,-0.8736 -0.2695,-0.8501 -1.4932,0.156 -0.5114,0.4209 -0.8167,0.4596 -1.2206,0.156 -0.4199,-0.3153 -0.4471,-0.5937 -0.1238,-1.263 0.3705,-0.7672 0.2933,-1.4726 -0.1183,-1.0806 -1.0322,0.9827 -5.2926,3.9078 -6.1234,4.2039 -0.5956,0.2122 -2.9689,0.7651 -5.274,1.2285 -6.661,1.3393 -7.8968,1.4073 -7.4528,0.4101 z"
       style="fill:#64ba2e;fill-opacity:1;stroke-width:0.292934"
       id="path1-6-0" /><path
       d="m 4280.9952,1235.4688 -2.8982,1.1549 -4.5037,-2.1322 -4.5034,-2.1322 -3.6657,7.8498 c -2.016,4.3174 -3.8715,7.9238 -4.1228,8.0144 -0.8031,0.2893 -6.1244,-4.0994 -7.6447,-6.305 -2.7075,-3.9151 -2.9861,-4.8986 -2.22,-7.6412 l 0.6942,-2.4861 -1.4093,-0.5819 c -0.7754,-0.3194 -1.9947,-0.7184 -2.7096,-0.8856 -0.8785,-0.2056 -2.6614,-1.4916 -5.4968,-3.965 -2.3083,-2.0132 -4.2462,-3.7989 -4.3065,-3.9681 -0.3107,-0.8688 2.1569,-3.3423 4.4631,-4.4739 3.1124,-1.5272 6.5292,-1.7024 10.464,-0.5368 2.8172,0.8344 2.9576,0.8243 4.0325,-0.2929 1.366,-1.4191 1.9907,-1.243 1.2577,0.3546 -0.4565,0.9989 -0.3882,1.2604 0.4386,1.6518 0.8426,0.3989 1.2326,0.2047 2.7255,-1.3569 1.5158,-1.5853 1.8275,-2.1585 2.3947,-4.4021 1.3742,-5.4367 4.2088,-9.686 7.9923,-11.9812 0.9189,-0.5577 1.9008,-0.9051 2.1817,-0.7722 0.2807,0.133 1.0505,2.1557 1.7104,4.4946 0.6602,2.3391 1.5128,4.9361 1.895,5.7715 0.3821,0.8351 0.7199,2.3655 0.7504,3.4008 l 0.056,1.8821 -1.8403,0.611 c -2.3432,0.7779 -2.0107,1.3722 1.4142,2.5266 2.6745,0.9006 3.5056,1.6334 4.5084,3.9784 1.0428,2.4373 2.0355,9.446 1.4944,10.5508 -0.1354,0.2859 -1.557,1.0365 -3.1513,1.6716 z"
       style="fill:#64ba2e;fill-opacity:1;stroke-width:0.435074"
       id="path2"
       sodipodi:nodetypes="cccccccsccsccccscscssscccccscccc" /></g></svg>
