<?xml version="1.0" encoding="UTF-8" standalone="no"?>
<!-- Created with Inkscape (http://www.inkscape.org/) -->

<svg
   width="163.51184mm"
   height="21.520441mm"
   viewBox="0 0 617.99752 81.337101"
   version="1.1"
   id="svg1"
   xml:space="preserve"
   xmlns="http://www.w3.org/2000/svg"
   xmlns:svg="http://www.w3.org/2000/svg"><defs
     id="defs1" /><g
     id="layer1"
     transform="translate(-6223.2958,-760.66539)"><path
       d="m 6224.496,841.54493 c -0.66,-0.2663 -1.2,-1.6458 -1.2,-3.0654 0,-1.9676 1.8829,-4.4213 7.92,-10.3213 29.7336,-29.0584 68.416,-49.2557 109.3319,-57.0856 20.4052,-3.9049 34.2633,-1.3401 42.5963,7.8836 6.8015,7.5284 7.6971,13.9725 4.2754,30.763 -1.8924,9.2863 -1.9002,9.7147 -0.24,13.1032 0.9441,1.9267 2.7964,4.0644 4.1164,4.7505 2.9733,1.5452 9.0259,1.0259 13.6574,-1.1719 1.9251,-0.9135 18.9573,-13.9985 37.8494,-29.0778 36.3228,-28.9922 42.6952,-33.1399 52.8672,-34.4108 10.62,-1.3269 21.74,3.4029 26.057,11.0832 3.627,6.4536 3.654,12.2466 0.124,26.63 -3.536,14.4087 -3.389,17.7037 0.976,21.8856 2.347,2.2489 3.917,2.8227 8.657,3.1656 9.15,0.6619 13.635,-2.1871 47.492,-30.1634 39.003,-32.2288 41.792,-33.9941 53.641,-33.9516 7.158,0.026 12.46,2.2475 16.591,6.9525 4.546,5.1775 5.475,11.0528 4.058,25.6664 -1.102,11.3678 -1.061,12.2312 0.784,16.3891 3.393,7.6491 12.687,9.7901 23.326,5.3732 2.904,-1.2057 23.208,-12.5118 45.12,-25.1247 48.245,-27.7704 51.952,-29.5086 64.117,-30.0633 9.986,-0.4553 14.474,0.7346 21.229,5.6283 7.578,5.4891 11.144,17.4336 10.019,33.5574 -1.009,14.4488 2.317,23.3539 9.904,26.5242 2.248,0.9392 3.82,1.0368 5.628,0.3495 3.834,-1.4577 6.051,-1.1491 7.202,1.0025 2.413,4.5079 -1.572,7.6438 -9.712,7.6438 -7.563,0 -14.498,-4.4561 -18.232,-11.7165 -2.524,-4.9057 -3.877,-15.6404 -3.157,-25.045 1.125,-14.6913 -2.208,-23.3378 -10.597,-27.4961 -6.235,-3.0908 -14.062,-3.0386 -22.749,0.1519 -3.491,1.2822 -24.878,12.9665 -47.527,25.9651 -22.649,12.9985 -43.728,24.8003 -46.842,26.226 -16.076,7.3597 -32.67,1.9288 -36.725,-12.0192 -1.361,-4.6836 -1.402,-6.7677 -0.342,-17.4665 1.382,-13.9635 0.729,-17.5079 -3.954,-21.4483 -2.354,-1.9811 -3.898,-2.4293 -8.336,-2.42 -7.84,0.016 -12.651,3.0773 -39.208,24.9486 -37.413,30.8116 -39.885,32.7165 -46.851,36.1046 -5.606,2.7267 -7.755,3.2554 -13.231,3.2554 -9.843,0 -16.734,-3.6806 -20.667,-11.04 -2.373,-4.4406 -1.941,-14.702 1.071,-25.44 1.407,-5.016 2.559,-10.6388 2.559,-12.495 0,-12.3923 -14.619,-17.8767 -28.819,-10.8095 -3.916,1.9487 -18.6681,13.0742 -39.82,30.03 -18.48,14.8139 -35.976,28.1089 -38.88,29.5444 -4.2513,2.1016 -6.5892,2.6051 -12,2.5847 -7.8707,-0.03 -11.5914,-1.6684 -15.5393,-6.8444 -2.2314,-2.9254 -2.7347,-4.6487 -3.0146,-10.321 -0.1994,-4.0431 0.2836,-9.4658 1.189,-13.3488 3.472,-14.8897 0.9676,-21.5298 -9.9951,-26.4997 -5.9894,-2.7154 -16.3214,-2.6089 -30.1037,0.3102 -37.2476,7.8893 -73.937,27.2505 -100.519,53.0445 -8.6717,8.4147 -10.7871,9.6645 -14.0973,8.3288 z"
       style="fill:#64ba2e;fill-opacity:1"
       id="path1-22" /></g></svg>
