<?xml version="1.0" encoding="UTF-8" standalone="no"?>
<!-- Created with Inkscape (http://www.inkscape.org/) -->

<svg
   width="122.86653mm"
   height="176.88148mm"
   viewBox="0 0 464.37745 668.52846"
   version="1.1"
   id="svg1"
   xml:space="preserve"
   inkscape:version="1.4 (e7c3feb100, 2024-10-09)"
   sodipodi:docname="logovectorization.svg"
   xmlns:inkscape="http://www.inkscape.org/namespaces/inkscape"
   xmlns:sodipodi="http://sodipodi.sourceforge.net/DTD/sodipodi-0.dtd"
   xmlns="http://www.w3.org/2000/svg"
   xmlns:svg="http://www.w3.org/2000/svg"><sodipodi:namedview
     id="namedview1"
     pagecolor="#505050"
     bordercolor="#eeeeee"
     borderopacity="1"
     inkscape:showpageshadow="0"
     inkscape:pageopacity="0"
     inkscape:pagecheckerboard="0"
     inkscape:deskcolor="#505050"
     inkscape:document-units="mm"
     inkscape:zoom="0.18217943"
     inkscape:cx="4833.1472"
     inkscape:cy="642.22399"
     inkscape:window-width="1921"
     inkscape:window-height="1022"
     inkscape:window-x="0"
     inkscape:window-y="0"
     inkscape:window-maximized="1"
     inkscape:current-layer="layer1"><inkscape:page
       x="0"
       y="1.0743773e-14"
       width="464.37744"
       height="668.52844"
       id="page2"
       margin="0"
       bleed="0" /></sodipodi:namedview><defs
     id="defs1" /><g
     inkscape:label="Layer 1"
     inkscape:groupmode="layer"
     id="layer1"
     transform="translate(-2311.3321,-507.05219)"><path
       style="fill:none;stroke:#f2f2f2;stroke-width:1;stroke-dasharray:none;stroke-opacity:1"
       d="m 2675.9913,1014.6412 c -1.0473,-0.041 -5.3314,-0.343 -9.5204,-0.6704 -4.1889,-0.3274 -10.9118,-0.8512 -14.9397,-1.1638 -4.0278,-0.3127 -10.3552,-0.8892 -14.0608,-1.2811 -3.7056,-0.3919 -8.881,-0.8776 -11.5008,-1.0794 -4.6869,-0.361 -4.7739,-0.357 -5.4193,0.2476 -1.2328,1.1548 -2.1453,1.3072 -5.7823,0.9654 -1.8528,-0.174 -6.862,-0.581 -11.1315,-0.9043 -4.2695,-0.3233 -10.9264,-0.9777 -14.7932,-1.4542 -18.196,-2.2422 -50.0571,-3.4775 -75.577,-2.9301 -16.5412,0.3548 -50.0892,1.8377 -59.905,2.648 -1.8528,0.153 -6.5983,0.4774 -10.5456,0.721 -3.9473,0.2436 -8.9565,0.5726 -11.1315,0.7312 -2.1751,0.1585 -5.3388,0.2875 -7.0305,0.2867 -2.9055,0 -3.165,-0.052 -4.6869,-0.9179 -2.3974,-1.3635 -7.1713,-6.3073 -9.5886,-9.9298 -2.137,-3.20253 -5.8952,-9.96658 -7.4427,-13.39547 -1.81,-4.01047 -4.3304,-10.59566 -5.7479,-15.01782 -0.8026,-2.50371 -1.859,-5.46967 -2.3476,-6.59102 -1.083,-2.48519 -3.1999,-8.32891 -4.4526,-12.29149 -1.119,-3.53938 -1.9033,-5.48979 -2.1576,-5.36523 -0.2601,0.12736 -5.9219,-4.89019 -9.1422,-8.10195 -3.4618,-3.45255 -11.1695,-11.85947 -14.1071,-15.38683 -5.3984,-6.48231 -14.4068,-18.92598 -18.7678,-25.92468 -4.5766,-7.34479 -11.1891,-19.71092 -13.6277,-25.48547 -0.4082,-0.96657 -1.2008,-2.74606 -1.7613,-3.95441 -3.41,-7.35104 -6.514,-15.58161 -8.8931,-23.5812 -3.6081,-12.13198 -3.9274,-13.38929 -5.8275,-22.94459 -2.0461,-10.28917 -3.2572,-19.20849 -3.9439,-29.04457 -0.4918,-7.04419 -0.4095,-27.1654 0.1408,-34.42642 1.2666,-16.71376 4.0946,-32.35088 8.3439,-46.13713 0.6208,-2.01392 1.4125,-4.65033 1.7594,-5.85868 1.5493,-5.39623 5.6242,-16.52655 7.7754,-21.23773 7.7017,-16.86682 11.8683,-24.45004 20.763,-37.7885 3.5849,-5.37593 4.5008,-6.64337 9.8717,-13.65973 5.2139,-6.81124 9.4391,-11.51369 18.2678,-20.33124 11.74,-11.72522 13.8299,-13.51838 27.85,-23.89555 12.6212,-9.34173 18.6957,-12.97845 35.0057,-20.95744 15.6626,-7.66231 32.092,-13.45573 48.4806,-17.09544 17.9272,-3.98144 28.0909,-5.19721 45.6977,-5.46638 18.4282,-0.28175 30.8748,0.58106 45.1119,3.12707 2.7389,0.48981 6.1003,1.08391 7.4698,1.3202 1.3694,0.23628 2.9513,0.551 3.5152,0.6994 0.5639,0.14841 1.7503,0.42332 2.6364,0.61095 0.8861,0.18762 1.9407,0.44997 2.3435,0.58303 0.4028,0.13305 1.8528,0.53372 3.2222,0.8904 10.1137,2.63421 26.6247,8.45686 35.2986,12.44815 1.1278,0.51896 2.7096,1.24166 3.5152,1.60604 2.2621,1.02316 11.2661,5.50473 12.7426,6.3424 3.8806,2.20167 10.5566,6.09863 11.6255,6.78617 0.6743,0.43387 2.2561,1.41423 3.5152,2.17859 6.0751,3.68853 20.0721,14.33704 27.0325,20.56561 2.7712,2.4796 17.0549,16.85939 19.6559,19.78776 1.3595,1.53059 3.7865,4.36472 5.3935,6.29809 1.6071,1.93336 2.997,3.58112 3.0887,3.66168 0.718,0.63071 9.5456,12.91517 12.1064,16.84767 6.7003,10.28913 9.6947,15.48171 13.7641,23.87017 6.7284,13.86868 10.3204,22.78636 13.6566,33.90394 4.1265,13.75112 7.5923,29.6747 8.783,40.35487 2.3614,21.17903 2.0986,44.04128 -0.715,62.2322 -0.6518,4.21462 -1.0464,6.28897 -2.789,14.66302 -1.8206,8.74745 -6.0802,23.79472 -8.5827,30.31869 -1.9504,5.08472 -2.6906,6.94116 -3.3029,8.28406 -0.3875,0.85062 -0.7048,1.63501 -0.7048,1.74307 0,0.97372 -9.3574,19.74177 -13.0929,26.26064 -3.5768,6.24137 -9.5831,15.52018 -12.6668,19.5683 -0.5742,0.75369 -2.0324,2.72493 -3.2407,4.38056 -8.0373,11.0121 -19.7658,23.49578 -33.1034,35.23474 -2.6384,2.32212 -6.3546,5.33916 -10.1044,8.20333 -2.2556,1.72283 -4.334,3.32342 -4.6187,3.55686 -4.7151,3.86659 -25.6291,16.79158 -29.1657,18.02439 -0.5857,0.20417 -0.9284,0.52119 -0.9284,0.85882 0,0.71529 9.5544,10.77433 11.5188,12.12733 0.8525,0.58716 2.3335,1.31402 3.2911,1.61527 5.8122,1.82867 10.9066,4.10143 12.0669,5.3834 0.9429,1.0418 5.639,11.0967 5.639,12.0738 0,1.1178 -0.6644,2.0843 -1.5294,2.2255 -0.3674,0.06 -1.5245,0.075 -2.5717,0.034 z"
       id="path28"
       sodipodi:nodetypes="ssssssssssssscssssssssssssssssssssssssssssssssssssssssssssssssssssssssssssssss" /><path
       style="fill:#f2f2f2;fill-opacity:1;stroke-width:0.292934"
       d="m 2671.2411,1013.8348 c -13.4712,-1.0382 -27.5684,-2.2345 -33.9805,-2.8836 -3.8667,-0.3915 -8.9442,-0.8752 -11.2834,-1.0749 l -4.253,-0.3632 -1.3738,0.9684 -1.3738,0.9684 -4.1865,-0.3457 c -2.3026,-0.1901 -7.482,-0.6086 -11.5098,-0.93 -4.0279,-0.3214 -10.4871,-0.9711 -14.3538,-1.4436 -8.0302,-0.9814 -15.2175,-1.5593 -27.9752,-2.2495 -11.556,-0.6252 -53.7229,-0.7377 -65.0314,-0.1735 -4.1084,0.205 -11.8858,0.5653 -17.2831,0.8007 -11.4954,0.5014 -17.1316,0.824 -28.1217,1.6092 -14.8529,1.0613 -21.8423,1.465 -25.3627,1.465 h -3.4962 l -1.7683,-1.1554 c -3.751,-2.451 -8.9674,-8.7194 -12.2119,-14.67495 -3.8894,-7.13916 -7.4174,-15.35092 -9.8745,-22.98344 -0.6743,-2.09448 -1.8289,-5.32408 -2.5659,-7.17689 -2.2847,-5.74388 -2.7718,-7.12398 -5.7388,-16.25784 -1.2873,-3.96285 -1.7748,-5.97062 -3.2717,-13.47498 -1.5967,-8.00425 -2.8446,-16.55376 -3.207,-21.97006 -0.5649,-8.44588 -0.4105,-26.19438 0.2895,-33.24802 0.8971,-9.04074 3.3012,-21.36586 6.1425,-31.49043 1.6615,-5.92064 3.5076,-13.0015 4.8114,-18.45485 3.5169,-14.71013 8.0223,-26.12006 15.3812,-38.95368 3.2405,-5.65135 4.6359,-7.77506 9.0506,-13.77447 4.9857,-6.77539 7.6999,-9.97933 14.7133,-17.36806 6.005,-6.32639 6.5994,-7.05052 8.1753,-9.95977 0.9347,-1.72552 2.1703,-3.86233 2.7457,-4.74846 5.559,-8.56112 21.2898,-23.28683 31.8888,-29.85125 3.1858,-1.97312 4.462,-2.43355 14.7236,-5.31213 13.9584,-3.91562 15.6015,-4.74468 19.6968,-9.93852 4.5163,-5.7278 7.1957,-7.98079 12.5264,-10.53283 2.98,-1.42668 4.5852,-1.74852 9.227,-1.84999 3.9911,-0.0872 4.1601,-0.031 8.0744,2.68849 5.6327,3.91333 15.3022,10.18702 17.4118,11.297 2.3175,1.21946 2.3895,1.23592 6.298,1.44329 5.9634,0.3164 12.5753,1.3782 22.7016,3.64557 2.8998,0.64931 8.6853,2.24317 14.7931,4.07538 3.7839,1.13506 5.095,1.57725 9.3875,3.1658 3.097,1.14614 5.6663,1.57675 11.2263,1.88158 6.131,0.33614 10.0956,0.87777 15.0582,2.0573 3.3477,0.7957 9.3999,2.91221 10.2541,3.58596 0.2659,0.20982 0.5635,0.1249 1.0252,-0.29253 0.9364,-0.84655 8.907,-5.51308 12.4892,-7.31193 4.0935,-2.05563 9.3997,-3.61035 12.3217,-3.61035 1.0493,0 1.216,0.12613 2.4185,1.83084 0.7104,1.00696 4.1544,6.33379 7.6535,11.83738 3.4988,5.50361 6.5324,10.14832 6.7413,10.32159 0.2088,0.17327 1.3929,0.50894 2.6317,0.74593 3.0773,0.5888 3.7355,0.95813 4.5188,2.53622 0.7977,1.60648 0.8029,1.77228 0.3597,11.6509 l -0.3462,7.72538 1.6135,3.13378 c 2.441,4.74146 3.3502,10.41492 3.0301,18.91104 -0.3187,8.46319 -1.9217,15.71717 -5.0154,22.69463 -1.6134,3.63865 -3.0884,6.04508 -5.7505,9.38166 -5.3306,6.68045 -12.392,11.9868 -19.8988,14.95297 -1.6917,0.66842 -3.1291,1.26673 -3.1941,1.32954 -0.065,0.0628 0.6406,0.44989 1.5683,0.86014 3.6975,1.63519 6.8931,4.43874 7.4839,6.56589 0.8264,2.97477 -0.1951,6.674 -2.3874,8.64501 -2.9938,2.69166 -9.0423,4.8507 -13.5769,4.84639 -3.2337,-0.003 -8.6052,-1.24418 -11.0405,-2.55087 -4.3782,-2.3493 -5.9165,-4.58377 -5.9379,-8.6248 -0.011,-2.03589 0.071,-2.36134 0.8782,-3.51143 1.0542,-1.5012 3.1486,-3.17169 5.4813,-4.37166 0.9264,-0.47658 1.6844,-0.92682 1.6844,-1.00055 0,-0.0738 -0.758,-0.34358 -1.6844,-0.59964 -6.3805,-1.76358 -7.7313,-2.23945 -11.2048,-3.94711 -3.4029,-1.673 -7.234,-4.38522 -9.8803,-6.99465 -1.3257,-1.30731 -2.5868,-2.37696 -2.8024,-2.37696 -0.2155,0 -0.9637,1.15343 -1.6626,2.56318 -0.699,1.40974 -2.0207,3.88137 -2.9374,5.49251 -0.9165,1.61114 -2.2983,4.11573 -3.0706,5.56575 -0.7722,1.45003 -1.6995,3.16369 -2.0606,3.80815 -0.3611,0.64445 -1.3462,2.48994 -2.1892,4.10107 -2.1777,4.16236 -5.2167,9.55563 -5.8029,10.29849 l -0.4985,0.63165 -5.684,-1.88943 c -3.1262,-1.03918 -5.8716,-1.85072 -6.1009,-1.80339 -0.6458,0.13329 -6.1629,12.9982 -9.1447,21.32376 -0.8367,2.33615 -1.7315,4.77483 -1.9884,5.41929 -0.3988,1.00016 -0.4731,2.95169 -0.5075,13.3285 -0.042,12.67418 -0.1604,14.50633 -1.9022,29.43988 -0.6244,5.35285 -2.8573,22.17571 -3.0717,23.1418 -0.072,0.32223 -0.5286,3.15637 -1.0158,6.29809 -0.4871,3.14172 -1.2206,7.48379 -1.63,9.64907 -0.4094,2.16531 -0.6441,4.02515 -0.5216,4.13301 0.1226,0.10786 2.332,0.41852 4.9098,0.6903 6.3718,0.67184 18.648,2.19332 20.4419,2.53353 0.8039,0.15247 1.5063,0.2772 1.5608,0.2772 0.2042,0 1.2224,2.58972 2.163,5.50145 0.5351,1.65637 1.0666,2.97457 1.181,2.92934 0.1145,-0.0452 1.4295,-1.40037 2.9223,-3.01151 1.4929,-1.61113 3.2515,-3.50103 3.9081,-4.19973 1.565,-1.66531 2.9558,-2.34222 6.1794,-3.00753 4.0941,-0.84497 5.0797,-0.76623 6.6294,0.52968 3.0851,2.5799 6.882,6.57383 8.5136,8.9555 2.2196,3.23982 4.4248,6.00623 7.7582,9.73239 1.4413,1.61113 3.4316,3.91799 4.4228,5.12634 0.9912,1.20836 4.0265,4.46523 6.7452,7.23747 3.8676,3.94418 5.2895,5.20189 6.5368,5.78261 0.877,0.40814 1.8581,0.7442 2.1803,0.74677 0.3222,0.003 0.9441,0.19161 1.3821,0.42007 0.4379,0.22849 1.822,0.77499 3.0758,1.21445 2.8356,0.99386 6.5145,2.80971 7.159,3.53353 0.2672,0.2999 1.6185,2.8389 3.0026,5.6423 2.5919,5.2486 2.9683,6.6238 2.127,7.7743 -0.5361,0.7329 -2.1877,0.7912 -8.5443,0.3013 z m -121.228,-64.06999 c -0.2217,-3.2271 -0.6478,-11.35037 -1.072,-20.43215 -0.5369,-11.49834 -0.8701,-17.86418 -1.219,-23.28827 -0.1865,-2.90005 -0.3344,-9.49107 -0.3286,-14.64671 0.013,-11.55801 0.7007,-17.90987 2.8775,-26.57539 0.4282,-1.70447 0.4491,-2.35364 0.1559,-4.83342 -1.0688,-9.03992 -0.5936,-16.69508 1.9282,-31.06505 0.4249,-2.42128 0.4577,-3.12069 0.168,-3.58449 -0.5309,-0.85018 -0.4433,-2.07471 0.352,-4.9208 2.5699,-9.19564 6.9211,-26.81774 6.6769,-27.04051 -0.1165,-0.10631 -2.321,-0.48296 -4.8988,-0.83703 -2.5778,-0.35404 -7.6151,-1.22584 -11.194,-1.93729 -3.5788,-0.71145 -6.7818,-1.29357 -7.1177,-1.29357 -0.336,0 -4.592,1.30959 -9.4579,2.91018 -17.5929,5.787 -20.7031,6.75665 -21.6729,6.75665 -0.5423,0 -1.9648,-0.3355 -3.1611,-0.74558 -2.8087,-0.96279 -3.9481,-0.99724 -5.5588,-0.16812 -3.619,1.86289 -6.4031,6.61124 -7.748,13.21432 -0.6373,3.12945 -0.4794,4.71554 0.8363,8.39702 2.8822,8.06512 4.3005,18.73443 3.4261,25.7729 -0.6796,5.46967 -3.3948,14.84391 -5.2064,17.97497 -1.695,2.92943 -4.5116,6.08418 -10.0692,11.27797 -8.2866,7.74427 -10.7904,10.23008 -11.13,11.05003 -0.3459,0.83498 -0.2802,1.45058 0.602,5.63576 1.6359,7.76108 1.5921,16.66745 -0.1396,28.43146 -0.7293,4.95395 -3.4349,20.85747 -4.5754,26.89402 -0.3296,1.74445 -0.5235,3.2475 -0.4309,3.34009 0.093,0.0926 5.0202,-0.004 10.9502,-0.21539 9.9157,-0.35293 32.9467,-0.26479 38.7325,0.14822 1.0472,0.0748 4.5404,0.27592 7.7627,0.44705 6.2551,0.33219 25.9726,1.69483 26.95,1.86247 0.3222,0.0553 1.2973,0.11847 2.167,0.14041 l 1.5811,0.0399 z"
       id="path29"
       sodipodi:nodetypes="ssscccsssssssscsssssssssssssssssssssssssssssssssssssscssssssssssssssssssssssssscsssssssssssssssssssssssscsssssssssssssssssssssssssssssssssssssscs" /><path
       d="m 2325.982,660.07516 c -8.1448,-12.5841 -10.6938,-16.76052 -10.5875,-17.34682 0.063,-0.34991 0.4064,-1.2148 0.7621,-1.92203 1.2346,-2.45435 0.7084,-2.31114 8.4907,-2.31114 6.296,0 12.7446,0.31274 15.5785,0.75551 l 1.0811,0.16891 -1.3153,1.78675 c -0.7235,0.98267 -1.4205,1.97461 -1.549,2.20424 -0.1953,0.34894 -0.5045,0.36133 -1.8815,0.0755 -1.0106,-0.2098 -1.8301,-0.24006 -2.1193,-0.0782 -0.5597,0.31326 -5.9566,9.84651 -6.1758,10.90922 -0.1122,0.54418 0.1204,1.07802 0.8934,2.05053 0.5748,0.72314 1.0463,1.46084 1.0479,1.63935 0,0.33846 -1.945,4.2165 -2.2896,4.5582 -0.1086,0.10769 -0.9797,-1.01279 -1.9357,-2.48994 z m 1.5206,-12.27933 c 1.9823,-3.31053 2.5883,-4.53764 2.356,-4.76999 -0.2921,-0.29211 -9.0223,0.23736 -9.0223,0.54717 0,0.16545 0.6389,1.23273 1.4199,2.37168 0.781,1.13896 1.7822,2.69699 2.2249,3.46228 0.4427,0.76529 0.8991,1.39144 1.0143,1.39144 0.1151,0 1.0184,-1.35116 2.0072,-3.00258 z m 431.4301,12.53129 c -0.5713,-1.20379 -1.0373,-2.29131 -1.0359,-2.41671 0,-0.12543 0.4629,-0.80683 1.0253,-1.51424 0.5625,-0.7074 1.0224,-1.52009 1.0224,-1.80593 0,-0.89501 -5.2248,-10.37594 -6.086,-11.04333 -0.2608,-0.20215 -0.6788,-0.31209 -0.9289,-0.24431 -0.2502,0.0678 -1.0751,0.2074 -1.8332,0.31031 l -1.3786,0.18707 -0.7774,-1.5539 c -0.428,-0.85464 -1.0493,-1.84997 -1.3812,-2.21183 -0.3322,-0.36189 -0.5484,-0.71318 -0.4804,-0.7807 0.068,-0.0675 2.552,-0.26575 5.5209,-0.44054 6.8638,-0.40416 17.161,-0.41538 17.9006,-0.0196 0.8431,0.45129 2.0406,2.70024 2.0386,3.8285 0,1.00644 -1.7761,4.19107 -6.0034,10.77679 -1.9079,2.97266 -6.2515,9.11699 -6.4446,9.11699 -0.066,0 -0.587,-0.98491 -1.1582,-2.18869 z m 6.0649,-12.98841 c 1.2488,-1.89666 2.2702,-3.60781 2.2702,-3.80255 0,-0.25462 -0.8844,-0.35495 -3.149,-0.35726 -1.7319,-0.003 -3.6104,-0.0725 -4.1743,-0.15707 -1.9697,-0.29563 -1.9949,0.1254 -0.1896,3.15124 0.9061,1.51845 1.7937,3.18032 1.9726,3.69307 0.1787,0.51276 0.4769,0.92975 0.6624,0.92667 0.1857,-0.003 1.3592,-1.55744 2.6077,-3.4541 z m -428.278,-11.8953 c -1.7578,-0.57019 -4.966,-2.52972 -6.7121,-4.09958 -3.8726,-3.48179 -3.5274,-7.85274 1.1782,-14.91867 2.3841,-3.58003 5.2162,-6.4722 7.3485,-7.50441 1.7852,-0.86422 4.1845,-0.80144 6.34,0.16588 2.3839,1.06983 2.457,1.42035 0.7032,3.37171 -1.6225,1.80523 -1.6986,1.83473 -3.3342,1.29145 -1.3365,-0.44391 -1.5466,-0.44616 -2.4273,-0.0264 -1.5746,0.7507 -3.0597,2.31837 -4.9174,5.191 -3.1303,4.8405 -3.2426,6.44733 -0.6153,8.8058 2.6032,2.33683 4.8023,3.03369 6.8601,2.17387 2.2807,-0.95292 6.9782,-7.72573 7.0418,-10.15281 0.023,-0.86597 -0.1616,-1.33818 -0.7704,-1.97361 -0.4401,-0.45941 -0.8002,-1.09801 -0.8002,-1.41909 0,-0.82567 2.092,-3.6127 2.7195,-3.62304 0.7297,-0.012 2.2285,1.60241 2.9028,3.12681 0.6963,1.5742 0.7442,4.40362 0.1049,6.20399 -1.092,3.07543 -4.1186,7.56687 -6.8866,10.21971 -3.1102,2.98073 -6.038,4.04229 -8.7355,3.1673 z m 408.8318,-0.71845 c -0.7294,-0.46248 -1.9541,-1.56831 -2.7216,-2.45739 -1.8224,-2.11068 -9.2365,-12.28302 -9.2439,-12.68223 0,-0.16967 1.1393,-1.15832 2.538,-2.19701 1.3991,-1.03866 4.9131,-3.77302 7.8091,-6.07636 2.8962,-2.30334 5.4125,-4.13152 5.5921,-4.06262 0.4865,0.18675 4.8161,5.79828 7.0404,9.12493 1.0709,1.60153 2.4287,3.90546 3.0172,5.11981 0.9154,1.88817 1.066,2.48365 1.0405,4.11198 -0.053,3.3347 -0.9412,4.70537 -4.81,7.42067 -2.9487,2.0694 -4.1588,2.52521 -6.7231,2.53268 -1.9395,0.006 -2.3766,-0.0975 -3.5387,-0.83446 z m 5.6255,-5.17453 c 2.6575,-1.34677 4.6665,-3.5755 4.6665,-5.17712 0,-0.9283 -1.1597,-3.03186 -3.6992,-6.70836 -2.833,-4.10205 -2.7908,-4.07167 -4.1447,-2.9906 -0.5997,0.47889 -2.4747,1.90173 -4.1664,3.16185 -3.7267,2.77593 -3.8943,2.95942 -3.4558,3.78251 0.4681,0.87839 3.9948,5.72844 4.897,6.73412 1.8569,2.07004 3.5164,2.40674 5.9026,1.1976 z m -395.7983,-13.80142 c -0.491,-1.10377 -1.0666,-2.40232 -1.2792,-2.88566 -2.0968,-4.76707 -6.3132,-16.02339 -6.3132,-16.85385 0,-0.61845 2.1743,-3.11896 2.9171,-3.35472 0.732,-0.23232 21.4372,5.33894 22.0245,5.92627 0.14,0.13996 -0.4853,1.00005 -1.4104,1.93995 -1.2663,1.28669 -1.8066,1.64987 -2.2706,1.52613 -0.3348,-0.0893 -1.2349,-0.35527 -2.0001,-0.59099 -1.3307,-0.40988 -1.4229,-0.40044 -2.1127,0.21651 -1.4277,1.27684 -6.8949,7.93092 -6.8887,8.38395 0,0.25479 0.2672,1.03792 0.5859,1.74023 0.3187,0.70234 0.5783,1.55917 0.5768,1.90407 0,0.34493 -0.6627,1.39838 -1.4696,2.34105 l -1.4671,1.71389 z m 2.3914,-11.16105 c 0.6963,-0.92641 1.7997,-2.25689 2.4519,-2.95662 0.6521,-0.69976 1.1858,-1.41654 1.1858,-1.59286 0,-0.30559 -6.7279,-2.23078 -7.8678,-2.2514 -0.4452,-0.008 -0.5103,0.137 -0.3573,0.79573 0.3052,1.31413 2.8857,7.68952 3.1124,7.68952 0.1149,0 0.7786,-0.75797 1.475,-1.68437 z m 371.501,9.80008 c -2.3754,-2.94879 -6.4088,-7.50049 -8.9327,-10.08025 l -2.352,-2.40396 5.5268,-5.351 c 3.0398,-2.94308 6.3728,-6.17842 7.4066,-7.18966 1.0337,-1.01124 1.9421,-1.83863 2.0183,-1.83863 0.076,0 0.285,0.18273 0.4637,0.40604 0.179,0.22333 2.2568,2.56314 4.6178,5.19958 4.4922,5.01658 8.4676,9.80837 8.4254,10.15559 -0.046,0.37914 -2.3116,2.17193 -2.7967,2.21323 -0.4733,0.0403 -1.1281,-0.66317 -6.992,-7.5106 -1.6111,-1.88142 -3.1332,-3.42361 -3.3825,-3.42709 -0.5519,-0.008 -2.7316,2.16695 -2.5825,2.57682 0.059,0.16123 1.4966,1.91989 3.1956,3.90813 5.1313,6.00503 5.1386,6.01531 4.5941,6.61542 -0.2569,0.28312 -0.8577,0.7449 -1.3355,1.0262 l -0.8686,0.51147 -4.0685,-4.61255 c -2.3494,-2.66359 -4.3228,-4.64953 -4.6706,-4.70007 -0.8129,-0.11819 -2.4545,1.44581 -2.4445,2.32883 0.01,0.4532 1.4117,2.33779 4.1198,5.52146 2.2615,2.65838 4.2326,5.05039 4.3803,5.31558 0.2109,0.37932 -0.065,0.76705 -1.2951,1.81763 l -1.5631,1.33546 z m -361.7621,-24.67136 c -3.839,-3.94998 -7.0184,-7.29455 -7.0652,-7.43244 -0.089,-0.26188 7.5327,-7.60647 10.0054,-9.64169 2.4099,-1.98346 4.0504,-2.72133 6.4545,-2.90315 1.9717,-0.14914 2.276,-0.0935 3.6858,0.67383 1.6749,0.91161 4.6068,3.91559 5.7907,5.93321 1.2581,2.14404 1.57,3.40937 1.3558,5.50019 -0.2438,2.37956 -1.0607,3.66745 -4.2881,6.75986 -1.3127,1.25775 -3.759,3.63795 -5.4364,5.28937 -1.6773,1.65142 -3.1561,3.00257 -3.2861,3.00257 -0.13,0 -3.3774,-3.23179 -7.2164,-7.18175 z m 11.3385,-2.69353 c 3.691,-3.54889 4.5922,-4.92395 4.1182,-6.28361 -0.5104,-1.4642 -3.0209,-4.62678 -4.3956,-5.53733 -1.385,-0.91738 -2.3104,-1.06315 -3.3405,-0.52608 -1.6785,0.87517 -7.8167,6.77386 -7.8167,7.51177 0,0.53902 7.2782,7.97305 7.806,7.97305 0.2008,0 1.8337,-1.412 3.6286,-3.1378 z m 328.1267,3.94337 c -0.6515,-0.52362 -1.2559,-1.11936 -1.3429,-1.32389 -0.087,-0.20453 0.4828,-2.90684 1.2661,-6.00515 1.3856,-5.47904 2.8564,-11.80706 3.5395,-15.22651 l 0.3363,-1.68399 1.8645,1.53752 c 1.0259,0.84564 1.9504,1.77586 2.0553,2.06718 0.2235,0.62231 -0.055,1.90164 -1.8279,8.40484 -1.9914,7.30446 -2.0673,7.62255 -1.8487,7.75757 0.1116,0.0689 3.3168,-1.05512 7.1229,-2.49791 3.8061,-1.44279 7.2897,-2.62326 7.7411,-2.62326 0.6011,0 1.3686,0.50329 2.869,1.88123 2.067,1.89844 2.0793,1.94672 0.5835,2.3101 -1.8777,0.45628 -8.7388,2.56324 -14.0737,4.32201 -3.3904,1.11778 -6.3751,2.03229 -6.6326,2.03229 -0.2572,0 -1.001,-0.42841 -1.6524,-0.95203 z m -11.6281,-10.20269 c -0.9628,-0.83876 -1.8636,-1.84385 -2.001,-2.23354 -0.1456,-0.41175 -0.1148,-1.85682 0.073,-3.45012 0.4875,-4.13286 0.455,-4.41355 -0.6289,-5.45956 -0.5235,-0.5054 -1.4462,-1.24907 -2.0505,-1.65262 -0.6041,-0.40357 -1.0985,-0.85724 -1.0985,-1.00813 0,-0.15092 -0.2959,-0.23227 -0.6574,-0.18077 -0.4461,0.0635 -1.2704,0.96205 -2.5632,2.79483 -1.0481,1.48567 -1.9902,2.70501 -2.0933,2.70964 -0.3333,0.0149 -2.9768,-1.90516 -3.2758,-2.37939 -0.2262,-0.3582 0.6131,-1.77421 3.8119,-6.43234 6.3039,-9.1802 7.249,-10.50268 7.5079,-10.50831 0.539,-0.0117 10.2061,7.12759 12.45,9.19445 1.9615,1.80681 2.8025,3.44139 2.5854,5.02516 -0.246,1.7951 -1.0621,3.25307 -2.7289,4.87399 -1.7404,1.69266 -3.2449,2.13057 -5.3997,1.57159 -0.7892,-0.20467 -1.4421,-0.35846 -1.4515,-0.34179 -0.01,0.0167 -0.077,1.67807 -0.1514,3.69199 -0.074,2.01392 -0.2341,4.03253 -0.3559,4.48582 l -0.2212,0.82411 z m 5.3692,-11.99393 c 1.0335,-0.63004 1.8631,-2.15711 1.5795,-2.90714 -0.2314,-0.61205 -0.4074,-0.77657 -3.2805,-3.06444 -1.3695,-1.09054 -2.7117,-2.1601 -2.9833,-2.37678 -1.5045,-1.2017 -2.0209,-1.41335 -2.4173,-0.99064 -0.7396,0.7891 -2.5087,3.55575 -2.5087,3.92347 0,0.55593 7.4312,6.00899 8.1864,6.00717 0.2504,0 0.8911,-0.26683 1.4239,-0.59164 z m -307.072,9.60045 c -0.9462,-1.62907 -6.8419,-9.26132 -10.2058,-13.21174 -0.94,-1.10387 -1.6675,-2.0472 -1.6167,-2.09633 0.051,-0.0491 1.4765,-1.12633 3.1682,-2.39383 1.6916,-1.26749 3.8667,-2.90795 4.8334,-3.6455 3.6919,-2.8168 8.2408,-5.75212 8.4887,-5.47767 0.3989,0.44154 1.9104,3.06143 1.9104,3.3113 0,0.17538 -0.4093,0.56065 -0.9095,0.85616 -0.8065,0.4764 -2.8014,1.87844 -8.3816,5.89061 -2.3476,1.68795 -2.4396,1.91846 -1.368,3.42634 0.4914,0.69141 1.1038,1.24043 1.3609,1.22001 0.257,-0.0205 2.5855,-1.51248 5.1743,-3.31569 3.2088,-2.23509 4.8737,-3.22568 5.2308,-3.11231 0.5853,0.18575 1.5295,1.62154 1.5295,2.32569 0,0.25143 -0.2965,0.61584 -0.6589,0.80979 -0.3624,0.19395 -2.5356,1.72617 -4.8292,3.40492 -3.9411,2.88446 -4.15,3.08706 -3.8018,3.68549 1.2058,2.07201 1.5815,2.53379 2.0632,2.53546 0.2948,0 2.5357,-1.41745 4.9799,-3.15214 5.6854,-4.03526 6.0215,-4.24488 6.5063,-4.05887 0.481,0.18458 2.1853,2.47518 2.1846,2.93605 0,0.1772 -0.6265,0.71537 -1.3915,1.1959 -2.1029,1.32093 -6.2784,4.35298 -9.9653,7.23636 -1.8159,1.42011 -3.4023,2.58203 -3.5253,2.58203 -0.123,0 -0.4725,-0.42841 -0.7766,-0.95203 z m 17.2436,-15.37904 c -1.0969,-1.73198 -3.5499,-5.48619 -5.4511,-8.34274 -1.9012,-2.85652 -3.4567,-5.37856 -3.4567,-5.60456 0,-0.37042 2.0742,-1.84851 4.6197,-3.29209 0.8409,-0.47686 1.038,-0.49315 1.6112,-0.13331 0.3592,0.22553 2.3667,1.32515 4.4612,2.44363 2.0945,1.11848 4.688,2.54583 5.7633,3.17189 2.0771,1.20926 2.5837,1.36041 2.588,0.77214 0.024,-3.21187 0.3247,-11.59084 0.4597,-12.79308 0.2114,-1.88374 0.9203,-2.64176 3.6139,-3.8645 1.3661,-0.62011 1.8372,-0.71807 2.1748,-0.45223 0.3637,0.28637 7.1884,13.5132 8.7507,16.95974 l 0.5015,1.10636 -1.9262,0.87341 c -1.0594,0.48035 -2.0101,0.8208 -2.1127,0.75653 -0.1025,-0.0642 -1.3591,-2.41451 -2.7925,-5.22275 -2.6871,-5.26453 -3.2873,-6.28763 -3.5403,-6.03471 -0.081,0.081 -0.2349,3.06316 -0.342,6.62702 -0.1072,3.56384 -0.273,6.5861 -0.3684,6.71613 -0.4056,0.55233 -2.5948,1.84558 -3.1187,1.84235 -0.3136,-0.003 -1.1633,-0.34657 -1.8883,-0.76584 -0.725,-0.41928 -2.6364,-1.49367 -4.2476,-2.3875 -1.6111,-0.89386 -3.3372,-1.93334 -3.8358,-2.30997 -1.0416,-0.78688 -2.1693,-0.90786 -2.1693,-0.2327 0,0.24864 1.2708,2.45663 2.824,4.90664 3.7103,5.85251 3.6777,5.78912 3.2423,6.32 -0.3874,0.47227 -2.835,2.08918 -3.1625,2.08918 -0.1121,0 -1.1013,-1.41707 -2.1982,-3.14904 z m 259.9858,0.38389 c -2.1432,-0.59141 -5.3581,-2.42846 -6.8527,-3.9158 -4.1312,-4.11086 -4.0723,-7.52405 0.2678,-15.58205 2.7843,-5.16991 3.1903,-5.85461 3.4715,-5.85684 0.2631,-0.003 3.4353,1.70175 3.8161,2.04961 0.2455,0.22409 -0.6157,2.15857 -1.5646,3.5143 -0.2821,0.40278 -1.3847,2.446 -2.4509,4.54048 -2.2542,4.42893 -2.4197,5.49676 -1.1196,7.213 1.8727,2.47213 4.2335,3.75565 6.9258,3.76561 1.7216,0.006 1.7576,-0.0108 3.2507,-1.55229 0.8305,-0.85727 1.9735,-2.34025 2.5403,-3.2955 1.1384,-1.91799 4.2777,-6.90678 4.4635,-7.09241 0.088,-0.0878 3.485,2.11917 4.2194,2.7411 0.057,0.0483 -1.1952,2.02969 -2.7829,4.4031 -4.9658,7.42394 -7.3723,9.50439 -10.9423,9.46042 -1.0472,-0.0129 -2.506,-0.18961 -3.2421,-0.39273 z m -25.1723,-13.16707 c -1.1339,-0.45385 -1.6372,-0.82335 -1.6991,-1.24738 -0.048,-0.33136 0.5778,-2.02449 1.3914,-3.76253 1.7111,-3.65511 1.786,-4.39624 0.7755,-7.67707 -1.7246,-5.59932 -3.1539,-10.68196 -3.0369,-10.79902 0.07,-0.0702 1.154,0.29047 2.4085,0.80141 2.647,1.07806 3.1044,1.64111 3.8012,4.67936 0.2532,1.10419 0.6723,2.93037 0.9314,4.05816 0.259,1.1278 0.5915,2.05054 0.7388,2.05054 0.1474,0 1.2932,-0.51553 2.5464,-1.14563 3.1974,-1.60751 5.8804,-2.66272 6.7668,-2.66128 0.4154,0 1.3712,0.31382 2.1241,0.69589 0.7531,0.38208 1.8006,0.84509 2.3282,1.02896 0.8226,0.28679 0.8987,0.39013 0.5349,0.72695 -0.2332,0.21595 -1.6106,0.86527 -3.0606,1.44296 -3.7923,1.5109 -8.6913,3.56806 -9.3739,3.93631 -1.1299,0.60965 -1.8844,1.71975 -3.4874,5.13118 -0.8892,1.89247 -1.7205,3.42853 -1.8475,3.41344 -0.1269,-0.0149 -0.9557,-0.31757 -1.8418,-0.67225 z m -206.0579,-3.18174 c -0.7929,-1.81253 -2.7262,-5.96361 -4.2964,-9.22461 -1.5703,-3.261 -2.7612,-5.98708 -2.6466,-6.05791 0.4003,-0.24735 4.2294,-1.6414 4.2988,-1.565 0.837,0.92157 8.469,18.37245 8.1594,18.6568 -0.2709,0.24873 -3.4882,1.48623 -3.8641,1.48623 -0.1153,0 -0.8583,-1.48298 -1.6511,-3.29551 z m 8.037,-0.4394 c 0,-1.30865 0.4474,-8.97433 0.8871,-15.30581 0.4345,-6.25546 0.5375,-6.58094 2.2645,-7.15324 2.6642,-0.88288 2.4453,-0.99469 7.8912,4.03215 5.1386,4.74322 10.6317,10.51449 10.6317,11.1701 0,0.20347 -0.5602,0.51147 -1.245,0.68441 -2.8543,0.721 -2.7292,0.74148 -4.1267,-0.676 -0.7157,-0.72595 -1.5045,-1.31993 -1.7529,-1.31993 -0.7525,0 -9.639,3.48392 -10.1243,3.96914 -0.07,0.0697 -0.1,0.96056 -0.067,1.97962 l 0.06,1.85284 -2.0489,0.93261 c -1.127,0.51296 -2.1218,0.93262 -2.2108,0.93262 -0.089,0 -0.1606,-0.49433 -0.1591,-1.09851 z m 9.7943,-10.60767 c 2.4126,-0.83267 2.3715,-1.05849 -0.7411,-4.06405 -1.5168,-1.46464 -2.9804,-2.66784 -3.2525,-2.67379 -0.3654,-0.008 -0.5342,0.31453 -0.6461,1.23413 -0.2435,1.99984 -0.4338,6.89605 -0.2743,7.0555 0.08,0.0804 0.893,-0.12341 1.8059,-0.45291 0.9129,-0.32946 2.3115,-0.82396 3.1081,-1.09888 z m 177.5345,9.51295 -1.7576,-0.6608 -0.2233,-2.01495 c -0.1227,-1.10823 -0.2559,-2.11786 -0.2959,-2.24361 -0.081,-0.25494 -6.7341,-2.66228 -9.3931,-3.39877 -1.9065,-0.52807 -1.9931,-0.48258 -3.1673,1.66404 l -0.4834,0.88367 -2.2429,-0.64733 c -1.2337,-0.356 -2.2486,-0.75132 -2.2554,-0.87842 -0.039,-0.72132 14.063,-15.06941 15.5839,-15.85591 0.7084,-0.36632 0.9459,-0.3249 2.5861,0.45079 0.9934,0.46978 1.8654,1.02337 1.9379,1.23021 0.3005,0.8573 1.908,19.21033 1.908,21.78355 0,0.5088 -0.02,0.50593 -2.197,-0.31247 z m -2.8986,-13.72332 c -0.2205,-2.21719 -0.4866,-4.11705 -0.5915,-4.22189 -0.2878,-0.28783 -6.0303,5.55105 -6.0303,6.13158 0,0.37871 0.6751,0.71922 2.7096,1.36669 3.2818,1.04437 3.8187,1.16684 4.0972,0.93472 0.1187,-0.0989 0.035,-1.99394 -0.185,-4.2111 z m -25.2231,4.30215 c -2.7873,-0.58048 -5.4498,-1.55628 -6.146,-2.25243 -0.282,-0.28204 -1.6968,-0.44799 -4.8882,-0.57333 -4.8828,-0.19179 -7.734,-0.79479 -10.2606,-2.16994 -2.0781,-1.13102 -2.9642,-3.42889 -2.2891,-5.93593 0.3748,-1.39211 1.7727,-2.93925 2.6556,-2.93925 0.2973,0 1.2186,-0.14544 2.0475,-0.32319 l 1.5069,-0.32317 -0.1472,-1.06827 c -0.081,-0.58754 -0.3075,-1.59552 -0.5033,-2.23998 -0.2724,-0.8967 -0.277,-1.46083 -0.019,-2.40338 0.9107,-3.33233 3.5408,-4.19724 9.5835,-3.15159 6.6254,1.14652 9.253,4.20378 7.2022,8.37974 -0.8216,1.67283 -2.0292,2.27955 -6.5701,3.30107 -0.7054,0.15868 -0.7624,0.25523 -0.4928,0.83495 0.3767,0.81026 2.6358,2.55957 3.3054,2.55957 0.2711,0 0.9105,-0.47558 1.4208,-1.05682 0.8823,-1.00488 0.9935,-1.04709 2.2613,-0.8587 3.4935,0.51905 3.9301,0.61894 4.0302,0.92195 0.059,0.17854 -1.0839,1.20815 -2.5398,2.28799 -1.8388,1.36399 -2.6469,2.14721 -2.6469,2.56558 0,0.33119 0.725,1.38528 1.6111,2.34241 0.8861,0.95711 1.6111,1.86453 1.6111,2.01645 0,0.15194 -0.033,0.26094 -0.073,0.24225 -0.04,-0.0187 -0.3369,-0.0889 -0.6591,-0.15598 z m -10.4581,-7.00318 c 0.072,-0.73793 -0.093,-1.02387 -0.9436,-1.62872 -0.5671,-0.40348 -1.4312,-1.28595 -1.9202,-1.96101 -0.8182,-1.1295 -0.9949,-1.22743 -2.2149,-1.22743 -2.005,0 -3.2326,0.62073 -3.4582,1.74859 -0.103,0.51468 -0.052,1.18881 0.1138,1.49806 0.4551,0.85051 2.9258,1.97426 5.0119,2.27967 2.9016,0.42479 3.3086,0.34019 3.4112,-0.70916 z m 3.5022,-8.00273 c 1.337,-0.6821 1.9797,-1.74173 1.7095,-2.81832 -0.2851,-1.13606 -2.1723,-1.86649 -5.4174,-2.09685 l -2.6647,-0.18915 -0.034,0.99592 c -0.077,2.2635 0.456,3.5097 1.8667,4.36765 1.122,0.6823 2.8922,0.58124 4.5397,-0.25925 z m -114.3108,13.68838 c -0.079,-0.21812 -0.5469,-1.97582 -1.04,-3.90599 -0.5833,-2.28281 -1.1228,-3.75316 -1.5435,-4.20686 -1.0892,-1.1744 -3.7804,-3.1537 -10.445,-7.68187 l -1.8889,-1.28338 2.0354,-0.6173 c 3.8653,-1.17226 3.5929,-1.21175 6.4808,0.93918 1.4217,1.05896 3.1598,2.40484 3.8624,2.99089 0.7026,0.58604 1.3795,1.06552 1.5042,1.06552 0.1248,0 1.2636,-2.04322 2.5308,-4.54048 l 2.3039,-4.54048 2.6364,-0.48082 c 1.45,-0.26444 2.7006,-0.41996 2.7791,-0.34555 0.078,0.0744 -0.2952,0.94984 -0.8303,1.94546 -3.293,6.12748 -5.3833,10.24549 -5.6207,11.07341 -0.2,0.69733 -0.1254,1.58076 0.2799,3.31364 1.1362,4.85808 1.2429,5.41709 1.0829,5.67587 -0.09,0.14576 -0.7938,0.34039 -1.5637,0.43252 -0.77,0.0921 -1.6296,0.2564 -1.9102,0.36514 -0.312,0.12086 -0.5658,0.0436 -0.6535,-0.1989 z m 19.6818,-4.0816 c -4.4097,-0.65325 -6.6558,-2.73481 -7.6599,-7.09847 -0.5761,-2.50424 -0.6059,-7.20217 -0.054,-8.48633 0.5492,-1.27725 2.3526,-2.9415 4.1704,-3.84854 2.8354,-1.41482 4.8461,-1.78104 9.7781,-1.78104 4.4591,0 4.572,0.0158 6.2981,0.8788 1.9296,0.96484 3.4169,2.64353 3.9645,4.47466 0.1795,0.6001 0.3963,2.60702 0.4818,4.45983 0.1384,2.99751 0.084,3.55807 -0.4947,5.08674 -1.2603,3.3304 -3.5977,4.84845 -8.8154,5.72529 -4.7244,0.79391 -5.7529,0.87291 -7.6691,0.58906 z m 7.6627,-4.94174 c 3.3798,-0.87772 4.7237,-2.51558 4.7237,-5.75683 0,-2.25853 -0.5283,-3.84769 -1.6531,-4.97247 -2.291,-2.29107 -9.8335,-1.78892 -12.6516,0.8423 -1.5811,1.47627 -1.9287,3.68136 -1.048,6.64729 0.6047,2.03607 1.2037,2.92006 2.3032,3.399 1.3506,0.58827 5.7731,0.50368 8.3258,-0.15929 z m 58.3317,3.69188 -1.6101,-0.33793 -0.2482,-1.61114 c -0.1365,-0.88613 -0.3551,-1.72383 -0.4858,-1.8616 -0.325,-0.34247 -6.3702,-1.0395 -9.1504,-1.05506 l -2.266,-0.0126 -0.8872,1.75761 -0.8873,1.7576 h -2.3392 c -1.2866,0 -2.3393,-0.059 -2.3393,-0.13108 0,-0.22082 4.4014,-8.67455 5.6511,-10.85395 0.6467,-1.12779 1.8559,-3.23692 2.6872,-4.68694 2.6099,-4.55267 2.2846,-4.24755 4.5285,-4.24755 1.1197,0 2.1785,0.15912 2.4681,0.37091 0.8631,0.6311 8.0059,20.07215 7.6834,20.91246 -0.1761,0.45914 -0.6145,0.45905 -2.8048,0 z m -4.4106,-8.46686 c -0.027,-1.14795 -2.5223,-7.39049 -2.9916,-7.48464 -0.2904,-0.0582 -0.7411,0.55766 -1.3315,1.81936 -0.491,1.04905 -1.3688,2.71995 -1.9509,3.71308 -0.5821,0.99311 -0.9864,1.87756 -0.8985,1.96544 0.1918,0.19176 3.5069,0.54633 5.6502,0.60427 1.4161,0.0383 1.5366,-0.0105 1.5223,-0.61751 z m -32.6466,7.42603 c -0.4833,-0.13659 -1.6196,-0.40243 -2.525,-0.59076 -1.9376,-0.40302 -3.7699,-1.81098 -4.681,-3.59682 -1.3019,-2.55198 -1.8572,-8.63397 -1.008,-11.04081 0.6511,-1.84542 2.1168,-3.78345 3.3227,-4.39336 2.6216,-1.32588 8.6602,-2.06841 12.4522,-1.53114 4.2194,0.59785 6.7314,2.30431 7.5039,5.09758 0.3865,1.3975 0.2744,2.71172 -0.2276,2.66807 -0.1853,-0.0161 -1.1829,-0.0491 -2.2169,-0.0732 -1.8587,-0.0434 -1.886,-0.0562 -2.4167,-1.12355 -1.0117,-2.03478 -1.6841,-2.28913 -6.0519,-2.28913 -3.7689,0 -3.8957,0.0211 -5.447,0.90086 -2.0472,1.16125 -2.6599,2.26921 -2.6577,4.80678 0,5.02687 1.7927,6.77572 6.9918,6.83747 3.0992,0.0368 5.3906,-0.4462 6.3931,-1.34765 0.8179,-0.73535 1.1822,-2.23426 0.6324,-2.60213 -0.2267,-0.15171 -2.2539,-0.18279 -4.7182,-0.0724 l -4.3208,0.1936 v -1.61081 -1.61082 l 1.6843,-0.15449 c 1.8787,-0.17233 12.3183,-0.085 12.4856,0.1044 0.059,0.0665 0.041,2.51458 -0.04,5.4402 -0.1665,6.04303 0.036,5.6616 -2.852,5.37279 -1.293,-0.1293 -1.4761,-0.23229 -1.5627,-0.8788 -0.1629,-1.21702 -0.544,-1.30701 -1.4975,-0.35357 -0.5317,0.53167 -1.5481,1.08793 -2.4864,1.36068 -1.9376,0.56328 -5.5621,0.82452 -6.7566,0.487 z"
       style="fill:#f2f2f2;fill-opacity:1;stroke-width:0.292934"
       id="path30" /><path
       d="m 2388.7104,1175.374 c -3.2592,-0.3674 -7.0219,-1.2734 -8.5744,-2.0646 -3.3691,-1.7172 -5.1592,-3.1894 -6.5066,-5.3513 -2.9905,-4.7979 -3.3782,-7.2429 -3.3782,-21.3005 v -11.0991 h 4.8334 4.8334 v 11.3712 c 0,12.7359 0.034,13.0097 2.0198,16.0815 0.971,1.5024 1.4437,1.9227 3.0525,2.7147 2.9019,1.4287 6.6502,1.9786 10.5297,1.5451 1.6772,-0.1874 3.8291,-0.6274 4.782,-0.9778 2.2788,-0.838 4.4678,-3.0286 5.4197,-5.4236 0.6703,-1.6865 0.6915,-2.024 0.8437,-13.4473 l 0.1561,-11.7174 4.7853,-0.081 4.7853,-0.081 -0.1211,12.0909 c -0.1355,13.5356 -0.2533,14.453 -2.4254,18.8825 -1.4904,3.0393 -5.0144,5.9742 -8.8198,7.3453 -3.9472,1.4222 -11.0959,2.0886 -16.2154,1.5116 z m -75.8032,-20.1084 0.075,-19.5607 4.7553,-0.089 4.7554,-0.089 0.078,7.8516 0.078,7.8517 h 14.0608 14.0609 v -7.7628 -7.7628 l 4.7622,-0.081 4.7623,-0.08 -0.075,19.5606 -0.075,19.5606 -4.7553,0.09 -4.7553,0.09 -0.078,-7.6438 -0.078,-7.6439 -13.4749,-0.017 c -7.4113,-0.01 -13.7035,0 -13.9827,0.011 -0.4656,0.025 -0.5142,0.653 -0.5859,7.571 l -0.078,7.5431 -4.7623,0.081 -4.7623,0.081 z m 113.7826,19.3508 c -0.1074,-0.1075 -0.1953,-8.9394 -0.1953,-19.6266 v -19.4313 h 6.4505 6.4505 l 1.2603,1.9773 c 0.6932,1.0875 1.5144,2.403 1.8249,2.9234 1.4964,2.5074 5.0504,8.1588 6.8659,10.9177 2.1852,3.3208 4.1204,6.3735 5.2421,8.269 0.8366,1.4138 0.478,1.7565 3.9008,-3.7285 3.3521,-5.3718 9.0807,-14.447 11.1409,-17.6493 l 1.7433,-2.7096 h 6.268 6.2679 v 19.6036 19.6036 l -4.8334,0.031 -4.8334,0.031 v -12.5308 c 0,-6.892 -0.1223,-12.7171 -0.2664,-12.9447 -0.1974,-0.3118 -0.4672,-0.034 -1.094,1.1273 -0.4577,0.8476 -1.0998,1.9565 -1.427,2.4643 -0.3271,0.5078 -2.6243,4.2188 -5.1047,8.2466 -2.4804,4.0279 -5.0188,8.0813 -5.6409,9.0077 l -1.131,1.6844 h -4.2439 -4.2438 l -0.7984,-1.3509 c -0.4391,-0.743 -2.2975,-3.7419 -4.1298,-6.6642 -2.9744,-4.7441 -7.8543,-12.6429 -9.5262,-15.4196 l -0.6173,-1.0253 -0.076,13.6947 -0.076,13.6947 h -4.4887 c -2.4688,0 -4.5767,-0.088 -4.6841,-0.1953 z m 61.9976,-0.024 c 0.6213,-1.089 10.4688,-19.3369 12.2117,-22.6291 4.5008,-8.5013 8.2836,-15.3909 8.7297,-15.8992 0.4045,-0.4611 0.9403,-0.511 4.7129,-0.4394 l 4.2564,0.081 0.9905,1.7576 c 0.5447,0.9667 2.0797,3.8009 3.411,6.2981 6.1721,11.5774 13.4178,25.0234 14.9164,27.6803 0.9081,1.6101 1.6511,3.0272 1.6511,3.1491 0,0.2526 -8.6262,0.2991 -9.5203,0.051 -0.3898,-0.108 -1.1326,-1.2587 -2.2193,-3.4379 -1.0782,-2.1621 -1.8748,-3.3986 -2.3435,-3.6375 -0.5251,-0.2675 -3.4956,-0.3619 -11.4021,-0.3621 -5.8807,-2e-4 -10.9691,0.074 -11.3075,0.1648 -0.4417,0.1186 -1.0712,1.1375 -2.2308,3.6105 l -1.6154,3.4453 -3.7744,0.1925 c -4.9244,0.2511 -6.6202,0.2446 -6.4664,-0.025 z m 33.4179,-14.0818 c 0.082,-0.1324 -0.021,-0.5608 -0.2294,-0.952 -0.208,-0.3913 -1.859,-3.5455 -3.6691,-7.0094 -1.81,-3.464 -3.4991,-6.5288 -3.7534,-6.8108 -0.5184,-0.5748 -0.9574,-0.669 -0.9574,-0.2053 0,0.3101 -4.6539,9.7238 -6.1476,12.4353 -0.4438,0.8056 -0.8988,1.7613 -1.0111,2.1238 l -0.2042,0.6591 h 7.9117 c 4.3515,0 7.9787,-0.1083 8.0605,-0.2407 z m 22.4417,-5.1378 v -19.4393 l 1.5379,-0.1847 c 0.8459,-0.1016 3.2548,-0.1859 5.3532,-0.1873 h 3.8153 l 13.3024,13.3231 c 7.3162,7.3277 13.3656,13.2598 13.443,13.1824 0.077,-0.077 0.1108,-6.0728 0.074,-13.3231 l -0.066,-13.1824 h 4.412 4.412 v 19.5723 19.5724 l -4.9066,0.049 c -5.3547,0.053 -6.4764,-0.1517 -7.414,-1.3527 -0.3368,-0.4314 -5.0656,-5.3321 -10.5086,-10.8906 -5.4429,-5.5584 -10.7784,-11.0949 -11.8567,-12.3032 -1.0782,-1.2084 -2.0675,-2.2349 -2.1985,-2.2813 -0.4935,-0.1747 -0.6048,2.4818 -0.6079,14.5113 v 12.3765 h -4.394 -4.394 z m 58.001,-0.18 v -19.6338 h 4.8445 4.8446 l -0.084,19.5533 -0.084,19.5534 -4.7601,0.08 -4.7602,0.081 z m 21.0912,-0.043 v -19.6627 l 15.1594,0.1614 c 17.9979,0.1916 19.5159,0.3761 23.6981,2.8811 3.4349,2.0576 5.4222,4.813 6.4674,8.9668 0.3811,1.5143 0.4953,3.2464 0.4886,7.3966 -0.01,6.2905 -0.4116,8.6454 -2.0365,11.9467 -2.1794,4.4277 -7.2255,7.0511 -14.7765,7.6821 -1.8528,0.1548 -9.1359,0.2835 -16.1846,0.2861 h -12.8159 z m 30.7283,10.565 c 2.1615,-0.8252 3.6549,-2.1748 4.5153,-4.0806 0.8495,-1.8823 1.0885,-9.7846 0.3617,-11.9727 -0.9801,-2.9508 -2.46,-4.3414 -5.5795,-5.2427 -1.6859,-0.4871 -19.3601,-0.8721 -19.9933,-0.4355 -0.2824,0.1947 -0.3691,2.7766 -0.3768,11.2203 -0.01,6.0321 -0.01,11.0772 0,11.2113 0.01,0.1342 4.3277,0.1926 9.6042,0.1297 9.327,-0.1111 9.6457,-0.1342 11.4678,-0.8298 z m 16.1412,8.829 c 0,-0.1478 0.571,-1.2353 1.269,-2.4167 1.1149,-1.8875 2.4241,-4.2929 7.3055,-13.4259 0.6456,-1.2084 1.929,-3.5812 2.8517,-5.2728 1.6914,-3.101 5.1876,-9.6318 7.7625,-14.5003 0.7669,-1.45 1.5247,-2.8012 1.6844,-3.0026 0.3213,-0.4057 8.2944,-0.5329 8.9005,-0.1419 0.3175,0.205 2.1472,3.4303 5.0235,8.8567 5.6232,10.6078 13.533,25.2787 14.8942,27.6247 0.5425,0.9351 0.9863,1.8249 0.9863,1.9773 0,0.1636 -2.0443,0.2773 -4.9828,0.2773 h -4.9831 l -1.6811,-3.442 -1.6815,-3.4419 -1.6111,-0.1908 c -0.8861,-0.1049 -6.1165,-0.2037 -11.6233,-0.2197 -8.0516,-0.023 -10.0878,0.048 -10.3992,0.3668 -0.2127,0.2177 -1.1006,1.8516 -1.9723,3.631 -1.5148,3.0914 -1.6323,3.2431 -2.6364,3.4092 -1.6891,0.2794 -9.1068,0.2074 -9.1068,-0.088 z m 33.3934,-14.3047 c 0,-0.282 -0.2452,-0.9131 -0.5437,-1.4026 -0.6149,-1.0082 -4.7321,-8.8216 -5.9369,-11.2668 -1.5332,-3.1115 -1.4433,-3.1208 -3.0914,0.321 -0.8026,1.6762 -2.4709,4.939 -3.7073,7.2504 -1.2365,2.3116 -2.3277,4.5195 -2.4249,4.9067 l -0.1767,0.7039 h 7.9412 c 7.3678,0 7.9408,-0.037 7.9397,-0.5126 z m 22.6789,14.3049 c -0.067,-0.067 -0.1218,-8.8661 -0.1218,-19.5533 v -19.4313 l 12.8158,2e-4 c 16.7225,0 20.9489,0.4205 24.9167,2.4774 3.7168,1.9265 5.6835,4.2244 6.9918,8.1678 0.7601,2.2917 0.7935,2.6496 0.8099,8.6882 0.018,6.9853 -0.2156,8.424 -1.9445,11.9359 -2.1355,4.3377 -7.7993,7.2793 -14.5893,7.5771 -4.0454,0.1774 -28.7216,0.2953 -28.8786,0.138 z m 28.6446,-8.263 c 3.328,-0.7061 5.0499,-2.0692 6.4501,-5.106 0.6073,-1.3169 0.6679,-1.8753 0.6679,-6.1417 v -4.6931 l -0.9614,-1.9531 c -1.0572,-2.1475 -1.8045,-2.7584 -4.648,-3.7999 -1.5728,-0.5761 -2.4331,-0.6384 -10.4393,-0.7558 -4.7991,-0.071 -9.0502,-0.046 -9.4471,0.053 l -0.7218,0.1811 v 11.2724 11.2724 h 8.7737 c 5.3803,0 9.3738,-0.1274 10.3259,-0.3294 z m -421.0053,-56.3758 c -4.8523,-0.5444 -8.2422,-1.5897 -11.2502,-3.4691 -2.5897,-1.618 -3.6464,-2.6477 -4.913,-4.7869 -2.9816,-5.0359 -3.2521,-6.837 -3.2882,-21.8938 l -0.029,-12.0103 5.1853,-0.08 5.1853,-0.08 0.088,12.8226 0.088,12.8226 0.7719,1.6463 c 1.5427,3.2901 3.8688,5.0815 7.7937,6.0022 1.5292,0.3587 2.9804,0.4313 6.374,0.3185 4.308,-0.143 5.9917,-0.4551 7.9676,-1.4769 1.0567,-0.5465 3.0906,-2.7257 3.7705,-4.0399 1.3129,-2.5377 1.3918,-3.3714 1.514,-15.9984 l 0.1169,-12.0836 h 5.1456 5.1456 l -0.1563,12.23 c -0.1629,12.7485 -0.3666,15.0573 -1.6496,18.6979 -1.0005,2.8391 -4.1218,6.4156 -7.1657,8.2106 -2.4742,1.4592 -3.513,1.8497 -6.6329,2.4936 -2.6794,0.553 -11.4112,0.9718 -14.0609,0.6745 z m 250.4587,-0.1284 c -5.2263,-0.6212 -10.1685,-2.6955 -12.9781,-5.4471 -1.8758,-1.837 -3.6127,-5.1321 -4.4727,-8.4853 -0.7257,-2.8292 -0.7502,-3.2458 -0.9178,-15.5764 l -0.1722,-12.6694 h 5.3042 5.3041 l 0.085,12.8159 0.085,12.8159 0.8209,1.7576 c 1.441,3.0854 3.7417,4.8984 7.4379,5.8611 2.1497,0.5599 8.6304,0.5724 11.2284,0.022 4.1179,-0.8731 6.949,-3.4673 8.0604,-7.3861 0.489,-1.7242 0.5962,-4.4533 0.7981,-20.3202 l 0.069,-5.4193 5.0819,-0.08 5.0819,-0.08 -0.1431,12.53 c -0.1741,15.2467 -0.3992,16.713 -3.2714,21.3088 -1.521,2.4338 -2.568,3.4599 -5.1381,5.0354 -2.4451,1.4989 -3.9001,2.0612 -7.1649,2.7693 -3.0664,0.665 -11.5315,0.9727 -15.0981,0.5488 z m 109.217,-0.5905 c -0.2677,-0.1563 -1.2227,-1.6621 -2.122,-3.3463 -0.8993,-1.6842 -1.9489,-3.6285 -2.3323,-4.3207 -0.3835,-0.6922 -2.3781,-4.2904 -4.4327,-7.996 -2.0544,-3.7056 -5.6129,-10.2307 -7.9078,-14.5002 -2.2945,-4.2695 -4.585,-8.5237 -5.0894,-9.4538 -0.5045,-0.93 -0.9172,-1.7567 -0.9172,-1.837 0,-0.08 2.5942,-0.1103 5.7646,-0.067 l 5.765,0.079 2.0734,4.1011 c 6.5769,13.0077 13.4527,26.2176 13.6457,26.2176 0.1231,0 2.2621,-4.0535 4.7538,-9.0077 2.4917,-4.9543 5.3806,-10.5896 6.4202,-12.523 1.0393,-1.9333 2.4068,-4.6356 3.0386,-6.0051 0.6319,-1.3695 1.2834,-2.5868 1.4477,-2.7052 0.1643,-0.1183 2.8505,-0.2172 5.9691,-0.2197 5.2295,0 5.6554,0.034 5.4782,0.4962 -0.1058,0.2754 -1.1545,2.2198 -2.3303,4.3208 -1.1761,2.101 -3.0026,5.4019 -4.0592,7.3353 -1.0566,1.9334 -4.0648,7.4039 -6.6851,12.1568 -2.62,4.7528 -5.8071,10.6518 -7.0819,13.1088 l -2.318,4.4672 -4.2968,-0.01 c -2.3634,0 -4.5159,-0.1367 -4.7836,-0.293 z m -319.1155,-0.2462 c -0.074,-0.074 -0.1353,-9.4727 -0.1353,-20.8849 v -20.7495 h 5.6533 5.6533 l 14.1395,14.2073 c 7.7767,7.814 14.2624,14.2073 14.4127,14.2073 0.1652,0 0.2732,-5.6155 0.2732,-14.2073 v -14.2073 h 4.6889 4.6889 l -0.075,20.8551 -0.075,20.8551 -5.8154,0.016 -5.8154,0.016 -4.9707,-5.1263 c -2.7339,-2.8195 -8.0262,-8.2245 -11.7606,-12.011 -3.7345,-3.7866 -7.7597,-7.914 -8.9449,-9.172 -1.1852,-1.2579 -2.2141,-2.228 -2.2864,-2.1557 -0.072,0.072 -0.1207,6.5492 -0.1075,14.393 l 0.024,14.2615 -4.7059,-0.082 c -2.5883,-0.045 -4.7669,-0.1423 -4.8413,-0.2168 z m 54.9363,0.027 c 0,-0.1251 1.0644,-2.1351 2.3653,-4.4667 1.3008,-2.3316 3.4254,-6.2165 4.7211,-8.6332 1.2958,-2.4167 4.6968,-8.7441 7.5578,-14.0608 2.8611,-5.3168 5.7214,-10.6555 6.3563,-11.8639 l 1.1543,-2.197 4.8275,-0.08 4.8274,-0.08 1.2832,2.4235 c 1.3923,2.6296 1.5676,2.9566 6.0119,11.2116 1.6481,3.0611 3.6257,6.7521 4.3947,8.2021 0.7691,1.4501 2.4133,4.4819 3.6539,6.7375 4.8744,8.8626 6.4304,11.7367 6.6046,12.1999 0.1592,0.4235 -0.2289,0.5081 -3.1731,0.6921 -2.9115,0.1819 -6.8585,0.067 -7.0722,-0.2057 -0.039,-0.05 -0.7644,-1.4742 -1.6125,-3.1659 -0.8481,-1.6917 -1.7451,-3.3065 -1.9934,-3.5885 -0.4167,-0.4731 -1.4147,-0.5126 -12.9664,-0.5126 -9.6699,0 -12.5774,0.083 -12.7899,0.3662 -0.1512,0.2014 -0.9253,1.846 -1.7202,3.6548 l -1.4452,3.2887 -2.1971,0.034 c -1.2083,0.018 -3.6799,0.087 -5.4925,0.1527 -1.8125,0.065 -3.2955,0.017 -3.2955,-0.1085 z m 35.733,-14.6378 c 0,-0.282 -1.3914,-3.1491 -3.086,-6.3713 -1.6945,-3.2223 -3.6239,-6.9542 -4.2876,-8.2932 -1.3372,-2.698 -1.5027,-2.7229 -2.4135,-0.3625 -0.2768,0.7173 -1.2642,2.6946 -2.1944,4.3941 -2.3263,4.2503 -5.2966,10.1569 -5.2966,10.5327 0,0.2087 2.5669,0.3375 7.836,0.3933 4.3098,0.046 8.1985,0.1137 8.6415,0.1513 0.5994,0.051 0.8043,-0.063 0.8006,-0.4444 z m 40.5784,14.6243 c -0.082,-0.082 -0.1485,-9.4858 -0.1485,-20.898 v -20.7495 h 5.6605 5.6604 l 13.1606,13.3877 c 7.2383,7.3632 13.6219,13.8447 14.1858,14.4032 l 1.0253,1.0156 0.076,-14.4032 0.076,-14.4033 h 4.8306 4.8307 v 20.9342 20.9342 l -5.7855,-0.063 c -4.6144,-0.05 -5.904,-0.1516 -6.3713,-0.5021 -0.3222,-0.2416 -2.8913,-2.8121 -5.7089,-5.7122 -10.4397,-10.7449 -21.7046,-22.1165 -21.909,-22.1166 -0.116,-10e-5 -0.1731,6.4004 -0.1269,14.2233 l 0.084,14.2234 -4.6956,-0.063 c -2.5825,-0.035 -4.7624,-0.1297 -4.8441,-0.2114 z m 120.3873,-0.109 c -0.088,-0.2296 -0.1227,-9.5709 -0.077,-20.7583 l 0.083,-20.3408 20.4322,-0.075 20.4322,-0.075 -0.021,3.7369 c -0.012,2.0552 -0.1101,3.9346 -0.2197,4.1763 -0.1731,0.3823 -2.1592,0.4394 -15.2852,0.4394 h -15.0861 l -0.081,4.3207 -0.081,4.3208 h 13.6012 13.6013 l 0.015,2.1238 c 0.01,1.1681 -0.057,2.7499 -0.1458,3.5152 l -0.1617,1.3914 h -13.4216 -13.4215 l -0.099,1.7181 c -0.055,0.9449 -0.058,2.9733 -0.01,4.5074 l 0.093,2.7894 2.5439,0.2154 c 1.3991,0.1185 8.278,0.1663 15.2864,0.1063 l 12.7426,-0.1091 0.082,4.0278 0.082,4.0279 h -19.7082 c -10.8394,0 -20.0031,0.083 -20.3636,0.1797 -0.4255,0.114 -0.7118,0.029 -0.8158,-0.2419 z m 96.0158,0.1663 c -0.2015,-0.086 -0.3662,-0.3941 -0.3662,-0.6839 0,-0.2898 1.9229,-4.0686 4.2734,-8.3974 4.2071,-7.7492 7.7182,-14.237 9.728,-17.9768 0.563,-1.0472 1.7746,-3.2882 2.693,-4.9799 0.918,-1.6917 2.4219,-4.4928 3.3418,-6.2248 l 1.6729,-3.1491 h 4.7994 4.7995 l 2.0171,3.8814 c 1.1091,2.1348 3.4695,6.5178 5.245,9.7401 1.7755,3.2223 3.891,7.111 4.7013,8.6415 0.8103,1.5306 3.3148,6.2102 5.5657,10.3992 2.2507,4.189 4.2532,7.9199 4.4497,8.2911 l 0.3577,0.6748 -5.3625,-0.089 -5.3624,-0.089 -1.8221,-3.7349 -1.8217,-3.7349 -12.0218,-0.052 c -6.6118,-0.029 -12.3181,-0.062 -12.6805,-0.073 -0.5586,-0.018 -0.9333,0.5375 -2.4571,3.6407 -1.6984,3.4591 -1.8522,3.6705 -2.7829,3.8219 -1.3273,0.2158 -8.5077,0.2914 -8.9673,0.094 z m 34.9093,-15.121 c -0.1149,-0.3625 -0.4983,-1.1205 -0.8519,-1.6844 -0.3536,-0.5639 -2.199,-4.0571 -4.1008,-7.7627 -1.9014,-3.7057 -3.5609,-6.8534 -3.6874,-6.995 -0.1263,-0.1417 -1.2134,1.7038 -2.4156,4.101 -1.2019,2.3973 -3.1083,6.1046 -4.2364,8.2387 -1.1278,2.134 -2.1267,4.0783 -2.2198,4.3207 -0.1483,0.3865 0.933,0.4408 8.776,0.4408 h 8.945 z"
       style="fill:#f2f2f2;fill-opacity:1;stroke-width:0.292934"
       id="path31" /><path
       d="m 2463.4806,693.30087 c -0.094,-0.24469 -0.1707,-0.97002 -0.1707,-1.6119 0,-1.53975 -0.3956,-2.21192 -1.4364,-2.44052 -1.7057,-0.37464 -5.149,-4.85873 -6.1906,-8.0619 -0.7246,-2.22818 -0.5345,-3.82722 0.6909,-5.81249 1.3282,-2.15184 1.3615,-2.5197 0.2072,-2.28884 -0.4786,0.0957 -1.7355,0.2627 -2.7931,0.37103 -2.2664,0.23221 -2.4103,0.13657 -5.117,-3.4012 -0.9245,-1.20835 -2.6891,-3.09919 -3.9214,-4.20182 -3.2117,-2.87377 -3.2298,-3.51266 -0.1559,-5.48522 2.093,-1.34307 4.6611,-2.04272 8.2005,-2.23415 2.6924,-0.14562 3.3746,-0.0819 5.1264,0.47842 1.1114,0.3555 2.6939,1.02284 3.5167,1.48295 1.5417,0.86216 3.6344,1.43063 3.625,0.9847 0,-0.13877 -0.3984,-0.83237 -0.8788,-1.54136 -0.4804,-0.70896 -0.8688,-1.56579 -0.8631,-1.90408 l 0.01,-0.61501 0.3558,0.60681 c 0.1957,0.33374 0.8781,1.22353 1.5164,1.97731 1.9196,2.26696 2.9012,1.73232 2.6945,-1.46763 -0.044,-0.67483 0.027,-1.1614 0.1566,-1.08122 0.1297,0.0802 0.2359,0.38702 0.2359,0.68189 0,0.2949 0.2453,0.83905 0.5451,1.20926 l 0.545,0.67314 0.3133,-1.00685 c 0.1723,-0.55376 0.405,-1.60003 0.5171,-2.32505 0.2965,-1.91751 1.2082,-4.62235 2.0317,-6.02753 1.8358,-3.13243 4.7879,-5.94477 7.6187,-7.25794 2.7684,-1.28422 3.3687,-1.15615 3.3687,0.71877 0,1.97995 1.1471,7.83078 1.8972,9.67679 1.1958,2.94285 0.8709,4.78028 -1.0872,6.14843 -1.077,0.75257 -1.9817,1.69002 -1.9817,2.05355 0,0.23854 0.3961,0.3551 2.2546,0.66335 3.8795,0.64346 5.8182,3.84166 6.2557,10.31981 0.1319,1.95393 0.4382,4.02723 0.6806,4.60733 0.4959,1.18685 0.468,1.22549 -1.0965,1.51898 -0.6207,0.11644 -1.6742,0.51392 -2.3412,0.88328 -3.1287,1.73259 -5.81,1.13026 -9.8085,-2.20333 -0.6696,-0.55825 -1.2175,-1.16398 -1.2175,-1.34604 0,-0.18202 -0.2609,-0.56709 -0.5798,-0.85566 -0.6485,-0.58692 -0.7916,-0.41048 -0.9455,1.1662 -0.064,0.65916 -0.2525,0.90248 -0.7528,0.97342 -0.5199,0.0738 -0.736,-0.10372 -0.9806,-0.80556 -0.2805,-0.80446 -0.8339,-1.2487 -0.8478,-0.68049 -0.035,1.42477 -0.9792,6.50566 -1.3573,7.30253 -0.2711,0.57116 -1.5583,2.64024 -2.8606,4.59798 -3.763,5.65697 -4.5888,6.57898 -4.9799,5.55986 z m 124.9854,-4.47451 -1.5379,-1.4309 v -3.35494 -3.35495 l -5.833,0.0308 c -3.2082,0.017 -5.9374,-0.073 -6.0649,-0.19987 -0.4075,-0.4053 0.7301,-4.90802 1.6342,-6.46863 1.6067,-2.77315 2.1207,-3.22843 4.0104,-3.55256 l 1.7129,-0.29378 -0.052,-1.02527 c -0.029,-0.5639 -0.1375,-1.42073 -0.2417,-1.90407 -0.128,-0.59375 0.1409,-2.04928 0.8291,-4.48732 0.5601,-1.98465 1.0884,-3.67846 1.174,-3.76397 0.4392,-0.43931 2.6553,0.34959 4.0084,1.427 1.8261,1.45392 2.9172,3.48276 3.3416,6.21311 0.3038,1.95481 0.3504,2.03721 1.34,2.36963 1.2572,0.42226 1.33,0.85311 0.1465,0.86738 -0.7393,0.009 -0.8788,0.12684 -0.8788,0.74291 0,0.62752 0.2306,0.80897 1.6111,1.26758 1.4014,0.46559 1.84,0.49017 3.3688,0.18886 3.7043,-0.73008 7.1068,-0.2294 9.5936,1.41168 0.6041,0.39871 1.0985,0.89608 1.0985,1.10521 0,0.20915 -1.009,1.26029 -2.2423,2.33585 -1.2333,1.07557 -2.568,2.34275 -2.9662,2.81592 -0.3981,0.47321 -1.2321,1.11963 -1.8533,1.43649 l -1.1293,0.57617 -0.902,-0.94386 c -1.1485,-1.20176 -1.415,-0.82716 -1.1301,1.58855 0.2225,1.88703 0.016,2.60387 -1.1221,3.88979 -1.1827,1.3368 -5.1618,3.96021 -5.99,3.94922 -0.213,-0.003 -1.0793,-0.64902 -1.9252,-1.43602 z m -49.7352,-32.53265 c -1.1014,-0.70595 -2.0977,-2.02503 -2.3613,-3.12623 -0.2787,-1.16482 -0.6041,-1.49979 -1.6771,-1.7264 -2.0424,-0.43135 -4.3595,-1.96987 -5.6913,-3.77888 -1.6007,-2.17443 -1.9621,-3.02918 -2.4143,-5.71037 -0.5861,-3.47482 0.4782,-10.58679 2.955,-19.74678 0.1677,-0.61988 0.2486,-1.18322 0.1799,-1.25189 -0.2828,-0.2828 -1.1692,0.32018 -1.7671,1.20215 -2.272,3.35099 -2.7325,3.96032 -3.1042,4.10746 -0.9035,0.35758 -1.0077,-0.38735 -0.4944,-3.53747 0.2792,-1.71329 0.4439,-3.17875 0.3661,-3.25658 -0.078,-0.0778 -2.3602,0.5873 -5.0719,1.47809 -8.5822,2.81914 -9.9489,3.09704 -13.8648,2.81922 -6.6928,-0.47484 -18.4335,-1.78449 -20.3997,-2.27551 l -2.0098,-0.50194 0.021,-1.19137 c 0.04,-2.21551 0.1316,-2.2855 2.718,-2.06981 l 2.2864,0.1907 0.3061,-5.34871 c 0.4165,-7.27951 1.2623,-9.77607 5.4015,-15.94388 3.4458,-5.13473 5.5057,-6.94823 9.1543,-8.05941 1.8068,-0.55028 2.4677,-0.59565 6.2981,-0.4324 2.3537,0.10033 4.6606,0.26956 5.1264,0.3761 l 0.847,0.19368 -0.5541,-0.95353 c -0.3047,-0.52444 -0.7199,-1.01926 -0.9227,-1.09964 -0.5331,-0.21127 -3.7668,-4.57727 -4.6968,-6.34138 -0.6949,-1.31841 -0.7907,-1.82645 -0.7802,-4.13928 0.01,-2.06164 0.1425,-2.89184 0.6109,-3.80814 0.3295,-0.64446 1.1519,-2.25524 1.8277,-3.57957 1.5655,-3.06781 2.9733,-7.40034 3.9771,-12.23888 1.0161,-4.89803 1.519,-6.17774 2.8504,-7.25328 2.3159,-1.87077 5.6603,-0.75246 11.2598,3.76508 3.6077,2.9106 7.8306,7.9461 9.5584,11.39743 2.2982,4.59095 3.5723,11.16799 4.6251,23.87413 0.3646,4.39987 0.4988,4.97988 1.1527,4.97988 0.3818,0 0.5857,-0.30729 0.7292,-1.0985 0.5432,-2.99631 3.4837,-11.19987 3.8744,-10.80922 0.1711,0.17108 -1.8497,9.18414 -2.4243,10.81259 -0.5731,1.62426 -0.5231,1.97393 0.2818,1.97393 0.7191,0 3.3764,-0.79845 5.1645,-1.55182 1.5647,-0.65919 2.9294,-0.89541 2.9294,-0.50704 0,0.18212 -0.4284,0.51144 -0.9521,0.73178 -3.7264,1.56808 -5.2484,2.4668 -5.1408,3.0355 0.1907,1.00708 2.962,0.60588 7.8505,-1.13649 0.7834,-0.27926 6.4187,-1.55399 8.33,-1.88433 2.6778,-0.46284 7.2582,-0.64701 10.1248,-0.40712 5.9015,0.49383 10.2461,1.70596 15.5742,4.345 4.2897,2.12474 6.9988,4.70775 7.428,7.08224 0.1832,1.01382 0.1276,1.11093 -1.1316,1.97731 -0.7283,0.50112 -1.3923,0.91114 -1.4755,0.91114 -0.2611,0 -3.7447,2.06466 -6.1878,3.6673 -2.4004,1.5747 -5.2901,4.26624 -10.6991,9.9651 -2.7438,2.8909 -3.2421,3.28637 -4.7057,3.73491 -3.3249,1.01903 -5.4788,0.54181 -11.0082,-2.439 -1.5312,-0.82549 -2.8455,-1.43936 -2.9207,-1.3642 -0.075,0.0752 0.3143,1.25499 0.8655,2.62182 1.4369,3.56355 1.7926,5.25401 1.8025,8.56701 0.01,2.69069 -0.067,3.08875 -0.9183,4.88608 -1.535,3.24015 -5.1709,7.83168 -7.8198,9.87534 -0.8697,0.67096 -3.0144,1.9597 -4.7659,2.86381 -1.7515,0.90414 -3.7777,2.04486 -4.5027,2.53494 -1.4347,0.96975 -3.5325,3.09414 -4.3183,4.37306 -0.5865,0.95456 -0.5648,0.95166 -1.6965,0.22627 z"
       style="fill:#f2f2f2;fill-opacity:1;stroke-width:0.292934"
       id="path32" /></g></svg>
