<?xml version="1.0" encoding="UTF-8" standalone="no"?>
<!-- Created with Inkscape (http://www.inkscape.org/) -->

<svg
   width="159.95122mm"
   height="140.44298mm"
   viewBox="0 0 604.54005 530.80811"
   version="1.1"
   id="svg1"
   xml:space="preserve"
   xmlns="http://www.w3.org/2000/svg"
   xmlns:svg="http://www.w3.org/2000/svg"><defs
     id="defs1" /><g
     id="layer1"
     transform="translate(-4816.2119,-1081.4114)"><path
       d="m 4893.5702,1610.8991 c -0.3435,-0.8943 -0.6238,-3.5451 -0.6238,-5.891 0,-5.6276 -1.4458,-8.084 -5.2497,-8.9194 -6.2339,-1.3695 -18.8182,-17.7577 -22.625,-29.4645 -2.6482,-8.1431 -1.9535,-13.9874 2.5251,-21.2428 4.8542,-7.8646 4.9759,-9.2089 0.7572,-8.3653 -1.7491,0.3508 -6.3428,0.9601 -10.208,1.3562 -8.2831,0.8487 -8.809,0.4989 -18.7013,-12.4305 -3.3788,-4.4163 -9.828,-11.3267 -14.3317,-15.3568 -11.7379,-10.5026 -11.8041,-12.8376 -0.5698,-20.047 7.6494,-4.9086 17.0351,-7.4655 29.9707,-8.165 9.84,-0.5325 12.3333,-0.2997 18.7356,1.7484 4.0619,1.2993 9.8455,3.7381 12.8527,5.4196 5.6345,3.1511 13.2827,5.2289 13.2484,3.5988 0,-0.5069 -1.4561,-3.0418 -3.2118,-5.633 -1.7557,-2.5912 -3.1752,-5.7226 -3.1544,-6.959 l 0.037,-2.2477 1.3004,2.2177 c 0.7152,1.2196 3.2092,4.4716 5.542,7.2265 7.0157,8.2853 10.6032,6.3312 9.8477,-5.3636 -0.1608,-2.4666 0.099,-4.2447 0.5724,-3.9519 0.474,0.2924 0.8621,1.4147 0.8621,2.4922 0,1.0777 0.8965,3.0666 1.9922,4.4196 l 1.9918,2.46 1.1451,-3.6796 c 0.6297,-2.024 1.4801,-5.8475 1.8898,-8.4976 1.0837,-7.0079 4.4157,-16.8933 7.4254,-22.0289 6.7093,-11.4481 17.4985,-21.7267 27.8443,-26.5257 10.1178,-4.6938 12.3117,-4.2256 12.3117,2.6266 0,7.2364 4.1924,28.6195 6.9338,35.3662 4.3703,10.7555 3.1829,17.4707 -3.9734,22.4711 -3.9362,2.7502 -7.2426,6.1765 -7.2426,7.505 0,0.8717 1.4476,1.2978 8.2399,2.4246 14.1786,2.3515 21.264,14.04 22.863,37.7162 0.482,7.1409 1.6015,14.7183 2.4874,16.8384 1.8124,4.3375 1.7104,4.4789 -4.0074,5.5516 -2.2685,0.4254 -6.1188,1.8781 -8.5565,3.2282 -11.4346,6.3318 -21.234,4.1306 -35.8475,-8.0528 -2.4472,-2.0401 -4.4496,-4.2542 -4.4496,-4.9193 0,-0.6652 -0.9536,-2.0726 -2.1191,-3.1274 -2.37,-2.1449 -2.893,-1.5003 -3.4555,4.2622 -0.2339,2.4092 -0.9228,3.2984 -2.7513,3.5575 -1.9001,0.2704 -2.6899,-0.379 -3.5838,-2.9439 -1.0252,-2.9402 -3.0477,-4.5637 -3.0985,-2.487 -0.1279,5.2072 -3.5787,23.7766 -4.9606,26.6887 -0.9908,2.0876 -5.6952,9.6496 -10.4547,16.8045 -13.7528,20.6748 -16.7709,24.0445 -18.2003,20.3199 z m 456.7888,-16.3531 -5.6206,-5.2296 v -12.2616 -12.2613 l -21.3181,0.1133 c -11.7251,0.062 -21.6996,-0.2668 -22.1656,-0.7306 -1.4893,-1.4812 2.6683,-17.9374 5.9726,-23.641 5.8721,-10.1353 7.7506,-11.7993 14.6569,-12.9838 l 6.2602,-1.0738 -0.19,-3.7468 c -0.106,-2.0609 -0.5025,-5.1927 -0.8833,-6.959 -0.4679,-2.1702 0.5149,-7.4897 3.0301,-16.3999 2.047,-7.2536 3.9778,-13.444 4.2907,-13.7564 1.6051,-1.6056 9.7044,1.2777 14.6496,5.2153 6.6739,5.3136 10.6616,12.7287 12.2127,22.7072 1.1103,7.1443 1.2806,7.4455 4.8973,8.6603 4.5948,1.5434 4.8608,3.1182 0.5354,3.1701 -2.7019,0.037 -3.2117,0.4638 -3.2117,2.7151 0,2.2937 0.8427,2.9567 5.8881,4.6328 5.1218,1.7016 6.7247,1.7915 12.3121,0.6903 13.5382,-2.6683 25.9735,-0.8384 35.0621,5.1594 2.2078,1.4572 4.0147,3.2747 4.0147,4.0392 0,0.7643 -3.6876,4.6061 -8.195,8.5368 -4.5074,3.931 -9.3854,8.5623 -10.8407,10.2914 -1.4549,1.7294 -4.503,4.0922 -6.7733,5.25 l -4.1273,2.1058 -3.2966,-3.4497 c -4.1975,-4.3919 -5.1714,-3.0228 -4.1302,5.806 0.8132,6.8964 0.059,9.5165 -4.101,14.2161 -4.3224,4.8857 -18.865,14.4735 -21.8919,14.4333 -0.7784,0 -3.9445,-2.3719 -7.0361,-5.2482 z m -181.7691,-118.8985 c -4.0253,-2.5798 -7.6665,-7.4008 -8.6299,-11.4254 -1.0186,-4.257 -2.2078,-5.4814 -6.1293,-6.3095 -7.4645,-1.5767 -15.9329,-7.1995 -20.8002,-13.8109 -5.8502,-7.9469 -7.171,-11.071 -8.8237,-20.87 -2.142,-12.6995 1.7477,-38.692 10.7998,-72.169 0.6129,-2.2656 0.9085,-4.3247 0.6575,-4.5754 -1.0336,-1.0336 -4.2732,1.1699 -6.4583,4.3934 -8.3036,12.247 -9.9866,14.4738 -11.3451,15.0118 -3.302,1.3066 -3.6828,-1.4159 -1.8069,-12.9286 1.0204,-6.2617 1.6224,-11.6174 1.338,-11.9021 -0.285,-0.285 -8.6259,2.1465 -18.5364,5.4021 -31.3657,10.3034 -36.3606,11.3191 -50.6722,10.3034 -24.4605,-1.7352 -67.3696,-6.5218 -74.5556,-8.3163 l -7.3453,-1.8343 0.077,-4.3543 c 0.1462,-8.0971 0.4809,-8.3529 9.9336,-7.5646 l 8.3562,0.697 1.1187,-19.5481 c 1.5222,-26.6047 4.6133,-35.7291 19.741,-58.2708 12.5935,-18.7659 20.1219,-25.3938 33.4566,-29.4549 6.6034,-2.0112 9.0188,-2.1772 23.0179,-1.5804 8.6021,0.3666 17.0333,0.9854 18.7356,1.3746 l 3.0956,0.7079 -2.0251,-3.4851 c -1.1136,-1.9166 -2.631,-3.725 -3.3722,-4.0188 -1.9484,-0.7722 -13.7667,-16.7288 -17.1656,-23.1761 -2.5397,-4.8184 -2.8898,-6.6751 -2.8514,-15.1281 0.037,-7.5346 0.5208,-10.5688 2.2327,-13.9176 1.2042,-2.3555 4.2099,-8.2422 6.6797,-13.0825 5.7215,-11.212 10.8667,-27.0462 14.5353,-44.7296 3.7136,-17.9013 5.5515,-22.5782 10.4174,-26.5089 8.4641,-6.8373 20.687,-2.7502 41.1517,13.7604 13.1852,10.6375 28.6187,29.041 34.9334,41.6545 8.3993,16.7786 13.0558,40.8162 16.9035,87.2536 1.3325,16.0805 1.823,18.2002 4.2128,18.2002 1.3954,0 2.1406,-1.1231 2.6651,-4.0147 1.9852,-10.9507 12.732,-40.9327 14.1599,-39.5048 0.6253,0.6253 -6.7602,33.5655 -8.8602,39.5172 -2.0945,5.9361 -1.9118,7.2141 1.0299,7.2141 2.6281,0 12.3399,-2.9183 18.8749,-5.6714 5.7186,-2.4092 10.7062,-3.2725 10.7062,-1.8533 0,0.6659 -1.5657,1.8694 -3.4797,2.6745 -13.619,5.731 -19.1815,9.0155 -18.7883,11.094 0.697,3.6807 10.8254,2.2144 28.6916,-4.1536 2.8631,-1.0204 23.4586,-5.6795 30.4439,-6.8867 9.7867,-1.6914 26.5268,-2.3646 37.0035,-1.4878 21.5684,1.8047 37.4468,6.2346 56.9196,15.8798 15.6777,7.7653 25.5788,17.2054 27.1474,25.8836 0.6695,3.7052 0.4663,4.0601 -4.1357,7.2265 -2.6617,1.8314 -5.0885,3.3302 -5.3926,3.3302 -0.9542,0 -13.6859,7.5456 -22.6147,13.403 -8.7729,5.7552 -19.334,15.5919 -39.1024,36.4199 -10.0279,10.5654 -11.8491,12.0105 -17.1981,13.65 -12.1517,3.7242 -20.0236,1.9802 -40.2321,-8.9139 -5.5962,-3.0169 -10.3996,-5.2606 -10.6744,-4.9858 -0.2741,0.2741 1.1487,4.5867 3.1632,9.582 5.2515,13.0237 6.5514,19.202 6.5876,31.3102 0.037,9.8338 -0.2448,11.2887 -3.3561,17.8574 -5.61,11.8417 -18.8983,28.6228 -28.5793,36.0916 -3.1786,2.4523 -11.0169,7.1622 -17.4181,10.4664 -6.4013,3.3047 -13.8065,7.4736 -16.4562,9.2648 -5.2435,3.544 -12.9104,11.3081 -15.7823,15.9822 -2.1435,3.4888 -2.0642,3.4782 -6.2002,0.827 z"
       style="fill:#f2f2f2;fill-opacity:1;stroke-width:1.0706"
       id="path32-5-3" /></g></svg>
