<?xml version="1.0" encoding="UTF-8" standalone="no"?>
<!-- Created with Inkscape (http://www.inkscape.org/) -->

<svg
   width="188.4863mm"
   height="56.601742mm"
   viewBox="0 0 712.38918 213.92785"
   version="1.1"
   id="svg1"
   xml:space="preserve"
   inkscape:version="1.4 (e7c3feb100, 2024-10-09)"
   sodipodi:docname="logovectorization.svg"
   xmlns:inkscape="http://www.inkscape.org/namespaces/inkscape"
   xmlns:sodipodi="http://sodipodi.sourceforge.net/DTD/sodipodi-0.dtd"
   xmlns="http://www.w3.org/2000/svg"
   xmlns:svg="http://www.w3.org/2000/svg"><sodipodi:namedview
     id="namedview1"
     pagecolor="#505050"
     bordercolor="#eeeeee"
     borderopacity="1"
     inkscape:showpageshadow="0"
     inkscape:pageopacity="0"
     inkscape:pagecheckerboard="0"
     inkscape:deskcolor="#505050"
     inkscape:document-units="mm"
     inkscape:zoom="0.064410157"
     inkscape:cx="-6606.101"
     inkscape:cy="2577.2333"
     inkscape:window-width="1921"
     inkscape:window-height="1022"
     inkscape:window-x="0"
     inkscape:window-y="0"
     inkscape:window-maximized="1"
     inkscape:current-layer="layer1"><inkscape:page
       x="0"
       y="0"
       width="712.38916"
       height="213.92786"
       id="page2"
       margin="0"
       bleed="0" /></sodipodi:namedview><defs
     id="defs1" /><g
     inkscape:label="Layer 1"
     inkscape:groupmode="layer"
     id="layer1"
     transform="translate(-2220.7413,-63.244269)"><g
       id="g19"
       transform="matrix(0.2051866,0,0,0.2051866,1901.6296,74.856189)"
       style="fill:#f2f2f2"
       inkscape:export-filename="navwhite.svg"
       inkscape:export-xdpi="96"
       inkscape:export-ydpi="96"><g
         id="g17"
         transform="matrix(0.65577559,0,0,0.65577559,543.88777,74.696173)"
         style="fill:#f2f2f2"><path
           style="fill:#f2f2f2;fill-opacity:1"
           d="m 2527.2949,1388.5874 c -45.987,-3.5441 -94.111,-7.6279 -116,-9.8438 -13.2,-1.3363 -30.5334,-2.9875 -38.5187,-3.6693 l -14.5186,-1.2398 -4.6899,3.3058 -4.6898,3.3057 -14.2915,-1.18 c -7.8604,-0.6489 -25.5415,-2.0777 -39.2915,-3.1749 -13.75,-1.0972 -35.8,-3.3148 -49,-4.928 -27.4129,-3.3501 -51.9486,-5.323 -95.5,-7.6792 -39.4492,-2.1342 -183.3957,-2.5182 -222,-0.5922 -14.025,0.6997 -40.575,1.9298 -59,2.7334 -39.2423,1.7117 -58.4826,2.8127 -96,5.4933 -50.7039,3.6229 -74.5638,5.0011 -86.5815,5.0011 h -11.9352 l -6.0366,-3.9443 c -12.805,-8.3668 -30.6122,-29.7655 -41.6882,-50.0963 -13.2772,-24.3712 -25.3211,-52.404 -33.709,-78.4594 -2.3017,-7.15 -6.2434,-18.175 -8.7592,-24.5 -7.7993,-19.6081 -9.4623,-24.3194 -19.5909,-55.5 -4.3944,-13.5281 -6.0586,-20.3821 -11.1687,-46 -5.4505,-27.3244 -9.7107,-56.5102 -10.9476,-75 -1.9287,-28.832 -1.4013,-89.42075 0.988,-113.50005 3.0625,-30.8627 11.2695,-72.9374 20.9689,-107.5 5.672,-20.2115 11.974,-44.3837 16.4249,-63 12.006,-50.2165 27.386,-89.167 52.5074,-132.9776 11.0624,-19.2922 15.8258,-26.542 30.8964,-47.0224 17.0199,-23.1294 26.2854,-34.0668 50.2273,-59.29 20.4996,-21.5966 22.5287,-24.0686 27.9085,-34 3.1908,-5.8905 7.4087,-13.185 9.3729,-16.21 18.977,-29.2254 72.6778,-79.4951 108.8599,-101.9043 10.8755,-6.7357 15.2321,-8.3075 50.2627,-18.1342 47.6503,-13.3669 53.2594,-16.1971 67.2397,-33.9275 15.4174,-19.5532 24.5642,-27.2443 42.7617,-35.9563 10.1731,-4.8703 15.6528,-5.969 31.4986,-6.3154 13.6246,-0.2978 14.2013,-0.1058 27.5638,9.1778 19.2286,13.3591 52.2377,34.7758 59.4392,38.565 7.9116,4.1629 8.1571,4.2191 21.5,4.927 20.3572,1.0801 42.9286,4.7048 77.497,12.445 9.8992,2.2166 29.6494,7.6576 50.5,13.9123 12.917,3.8748 17.3929,5.3843 32.0464,10.8072 10.5723,3.9126 19.3432,5.3826 38.3236,6.4232 20.9297,1.1475 34.4636,2.9965 51.4047,7.0231 11.4282,2.7163 32.0888,9.9415 35.0046,12.2415 0.908,0.7163 1.9238,0.4264 3.5,-0.9986 3.1964,-2.8899 30.4062,-18.8202 42.6347,-24.961 13.9741,-7.0174 32.0878,-12.3248 42.0636,-12.3248 3.5818,0 4.1505,0.4306 8.2558,6.25 2.4249,3.4375 14.1818,21.6219 26.1265,40.4097 11.9447,18.7879 22.3007,34.6437 23.0134,35.2352 0.7128,0.5915 4.7553,1.7374 8.9835,2.5464 10.5056,2.01 12.752,3.2708 15.4266,8.658 2.7228,5.4841 2.7403,6.0501 1.228,39.7731 l -1.1826,26.3724 5.508,10.6979 c 8.3337,16.1861 11.4372,35.5538 10.3448,64.5573 -1.0882,28.8911 -6.5609,53.6543 -17.1218,77.4735 -5.5073,12.4214 -10.5427,20.6363 -19.6311,32.0265 -18.1964,22.8053 -42.3024,40.9198 -67.9287,51.0455 -5.775,2.2818 -10.6817,4.3243 -10.9037,4.5387 -0.2221,0.2145 2.1873,1.5358 5.354,2.9363 12.6222,5.5821 23.5309,15.1527 25.5481,22.4142 2.821,10.1551 -0.6664,22.7833 -8.1501,29.5118 -10.2199,9.1886 -30.8679,16.559 -46.3483,16.5443 -11.0386,-0.011 -29.3761,-4.2473 -37.6891,-8.708 -14.946,-8.0199 -20.1976,-15.6478 -20.2705,-29.4428 -0.037,-6.95 0.2412,-8.061 2.9981,-11.9871 3.5986,-5.1247 10.7485,-10.8273 18.7115,-14.9237 3.1625,-1.6269 5.75,-3.1639 5.75,-3.4156 0,-0.2518 -2.5875,-1.1729 -5.75,-2.047 -21.7812,-6.0204 -26.3927,-7.6449 -38.25,-13.4744 -11.6168,-5.7112 -24.6952,-14.97 -33.7288,-23.8779 -4.5258,-4.4628 -8.8308,-8.1143 -9.5667,-8.1143 -0.7358,0 -3.29,3.9375 -5.6759,8.75 -2.3859,4.8125 -6.8981,13.25 -10.0272,18.75 -3.129,5.5 -7.8461,14.05 -10.4824,19 -2.6362,4.95 -5.8017,10.8 -7.0344,13 -1.2327,2.2 -4.5956,8.5 -7.4732,14 -7.4343,14.2092 -17.8086,32.6204 -19.8098,35.1563 l -1.7016,2.1563 -19.4037,-6.45 c -10.6719,-3.5475 -20.044,-6.3179 -20.8268,-6.1563 -2.2047,0.455 -21.0387,44.3724 -31.2177,72.7937 -2.8562,7.975 -5.9108,16.3 -6.7879,18.5 -1.3613,3.4143 -1.615,10.0763 -1.7324,45.5 -0.1434,43.2663 -0.5476,49.5208 -6.4937,100.50005 -2.1313,18.2732 -9.7541,75.702 -10.4859,79 -0.2441,1.1 -1.8045,10.775 -3.4675,21.5 -1.6631,10.725 -4.1671,25.5477 -5.5646,32.9394 -1.3975,7.3918 -2.1986,13.7408 -1.7804,14.109 0.4183,0.3682 7.9606,1.4287 16.7606,2.3565 21.7517,2.2935 63.6594,7.4874 69.7833,8.6488 2.7443,0.5205 5.142,0.9463 5.3282,0.9463 0.697,0 4.1729,8.8406 7.384,18.7805 1.8266,5.6544 3.6408,10.1544 4.0315,10 0.3908,-0.1543 4.88,-4.7805 9.9761,-10.2805 5.0961,-5.5 11.0996,-11.9516 13.3412,-14.3368 5.3425,-5.6849 10.0903,-7.9957 21.0948,-10.2669 13.9762,-2.8845 17.3406,-2.6157 22.6309,1.8082 10.5319,8.8071 23.4935,22.4413 29.0634,30.5717 7.5769,11.0599 15.1049,20.5037 26.4843,33.2238 4.9203,5.5 11.7145,13.375 15.0983,17.5 3.3837,4.125 13.7453,15.2431 23.0257,24.7068 13.2035,13.4644 18.0571,17.7579 22.3159,19.7403 2.9933,1.3933 6.3424,2.5405 7.4424,2.5493 1.1,0.01 3.2233,0.6541 4.7184,1.434 1.4951,0.78 6.2201,2.6456 10.5,4.1458 9.6795,3.3928 22.2383,9.5916 24.4391,12.0627 0.9117,1.0236 5.5242,9.6911 10.25,19.2611 8.848,17.9174 10.1322,22.612 7.2603,26.5395 -1.8294,2.502 -7.4678,2.7008 -29.1678,1.0284 z m -413.8401,-218.7179 c -0.7567,-11.0165 -2.2115,-38.7472 -3.6594,-69.75 -1.833,-39.2523 -2.9706,-60.9836 -4.1615,-79.5 -0.6368,-9.9 -1.1416,-32.40005 -1.1218,-50.00005 0.044,-39.456 2.3922,-61.1396 9.8231,-90.7214 1.4617,-5.8186 1.5332,-8.0347 0.5323,-16.5 -3.6486,-30.8599 -2.0266,-56.9926 6.5821,-106.0479 1.4505,-8.2656 1.5625,-10.6532 0.5737,-12.2365 -1.8125,-2.9023 -1.5135,-7.0825 1.2017,-16.7983 8.7727,-31.3915 23.6268,-91.5487 22.7931,-92.3092 -0.3978,-0.3629 -7.9232,-1.6487 -16.7232,-2.8574 -8.8,-1.2086 -25.996,-4.1847 -38.2133,-6.6134 -12.2173,-2.4287 -23.1515,-4.4159 -24.2982,-4.4159 -1.1467,0 -15.6757,4.4706 -32.2867,9.9346 -60.0573,19.7553 -70.675,23.0654 -73.9855,23.0654 -1.8513,0 -6.7073,-1.1453 -10.7912,-2.5452 -9.5882,-3.2867 -13.4778,-3.4043 -18.9764,-0.5739 -12.3543,6.3594 -21.8584,22.569 -26.4494,45.1102 -2.1758,10.6831 -1.6366,16.0976 2.8547,28.6652 9.8392,27.5322 14.681,63.9544 11.6958,87.9819 -2.3198,18.672 -11.5889,50.6732 -17.7733,61.3618 -5.7862,10.0003 -15.4014,20.7698 -34.3733,38.5 -28.2883,26.4369 -36.8357,34.9228 -37.9951,37.7219 -1.1807,2.8504 -0.9563,4.9519 2.0552,19.239 5.5844,26.4943 5.4351,56.89835 -0.4767,97.05755 -2.4895,16.9115 -11.7258,71.2019 -15.6192,91.8091 -1.1252,5.9551 -1.7871,11.0861 -1.471,11.4022 0.3161,0.3161 17.1376,-0.015 37.3811,-0.7353 33.8497,-1.2048 112.4714,-0.9039 132.2225,0.506 3.575,0.2552 15.5,0.9419 26.5,1.5261 21.3531,1.134 88.6637,5.7857 92,6.358 1.1,0.1887 4.4289,0.4044 7.3976,0.4793 l 5.3976,0.1362 z"
           id="path16"
           sodipodi:nodetypes="ssscccsssssssscsssssssssssssssssssssssssssssssssssssscssssssssssssssssssssssssscsssssssssssssssssssssssscsssssssssssssssssssssssssssssssssssssscs" /><path
           d="m 1818.0557,294.36915 c -0.3205,-0.8353 -0.5827,-3.3114 -0.5827,-5.5026 0,-5.2563 -1.3505,-7.5509 -4.9035,-8.3313 -5.8229,-1.2789 -17.5773,-16.5864 -21.1332,-27.5212 -2.4735,-7.6064 -1.8247,-13.0651 2.3585,-19.8423 4.5341,-7.3458 4.6478,-8.6016 0.7074,-7.8135 -1.6339,0.3268 -5.9246,0.8968 -9.5348,1.2666 -7.7371,0.7927 -8.2282,0.4662 -17.4681,-11.6108 -3.1559,-4.125 -9.18,-10.5798 -13.3867,-14.3439 -10.9638,-9.8103 -11.0258,-11.9913 -0.5321,-18.7251 7.145,-4.5849 15.9116,-6.9733 27.9943,-7.6268 9.191,-0.4971 11.5198,-0.2797 17.5,1.6332 3.794,1.2136 9.1963,3.4917 12.0052,5.0624 5.2631,2.9432 12.4069,4.8838 12.3748,3.3615 -0.01,-0.4737 -1.36,-2.8415 -3,-5.2618 -1.64,-2.4202 -2.9659,-5.3452 -2.9464,-6.5 l 0.035,-2.0995 1.2146,2.0715 c 0.668,1.1393 2.9974,4.1768 5.1763,6.75 6.5532,7.7388 9.9039,5.9137 9.1984,-5.0101 -0.1488,-2.3037 0.092,-3.9647 0.5347,-3.691 0.4428,0.2737 0.8052,1.3212 0.8052,2.3278 0,1.0067 0.8373,2.8643 1.8607,4.1281 l 1.8607,2.2979 1.0694,-3.4371 c 0.5881,-1.8904 1.3825,-5.4621 1.7652,-7.9371 1.0123,-6.5459 4.1247,-15.7795 6.9359,-20.5764 6.2667,-10.6933 16.3444,-20.2939 26.0081,-24.7767 9.4508,-4.384 11.5,-3.9468 11.5,2.4537 0,6.759 3.9159,26.7322 6.4765,33.034 4.0821,10.0461 2.973,16.3186 -3.7114,20.9891 -3.6768,2.5691 -6.7651,5.7693 -6.7651,7.0103 0,0.8143 1.3523,1.2122 7.6968,2.2645 13.2434,2.1966 19.8615,13.1144 21.355,35.2291 0.4505,6.6702 1.496,13.7479 2.3235,15.7282 1.6928,4.0516 1.5976,4.1835 -3.7431,5.1854 -2.1189,0.3975 -5.7154,1.7544 -7.9924,3.0153 -10.6803,5.9146 -19.8338,3.8584 -33.4836,-7.5216 -2.2859,-1.9057 -4.1562,-3.9735 -4.1562,-4.595 0,-0.6214 -0.8906,-1.9359 -1.9792,-2.921 -2.2139,-2.0036 -2.7022,-1.4013 -3.2278,3.9811 -0.2198,2.2502 -0.862,3.0808 -2.5696,3.323 -1.7749,0.2519 -2.5126,-0.3541 -3.3478,-2.75 -0.9574,-2.7462 -2.8466,-4.2627 -2.8939,-2.323 -0.1189,4.8638 -3.3428,22.2086 -4.6336,24.9289 -0.9253,1.9498 -5.3196,9.0131 -9.7652,15.6963 -12.846,19.3114 -15.6651,22.4589 -17.0002,18.9799 z m 426.6673,-15.2748 -5.25,-4.8847 v -11.4529 -11.4529 l -19.9124,0.1051 c -10.9519,0.058 -20.2687,-0.2492 -20.7041,-0.6823 -1.3911,-1.3836 2.4923,-16.7547 5.5789,-22.0822 5.4848,-9.4668 7.2393,-11.021 13.6905,-12.1275 l 5.8471,-1.0029 -0.1785,-3.5 c -0.098,-1.925 -0.4694,-4.85 -0.825,-6.5 -0.4369,-2.0269 0.4811,-6.9957 2.8302,-15.3185 1.9123,-6.7751 3.7157,-12.5573 4.0077,-12.8492 1.4996,-1.4997 9.0645,1.1934 13.6839,4.8714 6.2336,4.9633 9.9585,11.8892 11.4072,21.2099 1.0371,6.6732 1.1962,6.9545 4.5745,8.0893 4.2917,1.4415 4.5401,2.9123 0.5,2.961 -2.5237,0.03 -3,0.433 -3,2.5361 0,2.1422 0.7872,2.7616 5.5,4.3272 4.7839,1.5894 6.2811,1.6733 11.5,0.6447 12.6456,-2.4923 24.261,-0.7831 32.75,4.8191 2.0625,1.3611 3.75,3.059 3.75,3.7729 0,0.714 -3.4445,4.3023 -7.6545,7.974 -4.21,3.6717 -8.7666,7.9975 -10.1258,9.6128 -1.3592,1.6154 -4.2062,3.8221 -6.3266,4.9038 l -3.8553,1.9669 -3.0792,-3.2221 c -3.9206,-4.1025 -4.8303,-2.8237 -3.8579,5.4229 0.7595,6.4418 0.054,8.8889 -3.8304,13.2787 -4.0376,4.5635 -17.6211,13.5191 -20.4484,13.4816 -0.7271,-0.01 -3.6844,-2.2156 -6.5719,-4.9022 z M 2074.94,168.03645 c -3.7599,-2.4099 -7.1611,-6.9129 -8.0607,-10.6721 -0.9516,-3.9764 -2.0625,-5.1199 -5.7254,-5.8935 -6.9722,-1.4725 -14.8822,-6.7246 -19.4284,-12.9001 -5.4644,-7.4229 -6.6981,-10.3408 -8.2419,-19.4937 -2.0008,-11.8621 1.6324,-36.140496 10.0877,-67.410296 0.5722,-2.1161 0.8485,-4.0392 0.6141,-4.2736 -0.9654,-0.9654 -3.9913,1.093 -6.0326,4.1038 -7.7558,11.4394 -9.3278,13.5195 -10.597,14.0218 -3.0843,1.2207 -3.4397,-1.3223 -1.6875,-12.076 0.953,-5.8487 1.5153,-10.8514 1.2496,-11.1171 -0.2657,-0.2656 -8.057,2.0049 -17.314,5.0458 -29.2973,9.6238 -33.9629,10.5725 -47.3309,9.6241 -22.8475,-1.621 -62.9271,-6.0918 -69.6391,-7.768 l -6.8609,-1.7135 0.073,-4.067 c 0.1353,-7.5632 0.4491,-7.8021 9.2785,-7.0658 l 7.8052,0.651 1.0449,-18.2591 c 1.422,-24.8503004 4.3093,-33.3729 18.4393,-54.4282 11.7632,-17.5286 18.795,-23.7194 31.2504,-27.5127 6.168,-1.8785 8.424,-2.0334 21.5,-1.4761 8.0349,0.3425 15.91,0.9202 17.5002,1.2839 l 2.8914,0.6612 -1.8914,-3.2551 c -1.0402,-1.7903 -2.4577,-3.4795 -3.1499,-3.7539 -1.8199,-0.7212 -12.8588,-15.6256 -16.0335,-21.6478 -2.3725,-4.5007 -2.6994,-6.235 -2.6637,-14.130404 0.032,-7.0379 0.4865,-9.872 2.0856,-13 1.1247,-2.2 3.9324,-7.6988 6.2393,-12.2197 5.3441,-10.4727 10.1502,-25.2628 13.5767,-41.7803 3.4687,-16.7206 5.1855,-21.0892 9.7307,-24.7608 7.9057,-6.3863 19.3227,-2.5687 38.4377,12.853 12.3158,9.936 26.7319,27.1259 32.6299,38.9078 7.8454,15.6723 12.1951,38.1246 15.789,81.500004 1.2445,15.02 1.7028,17 3.935,17 1.3032,0 1.9995,-1.049 2.4892,-3.75 1.8546,-10.2286 11.8925,-38.2334 13.2262,-36.8998 0.584,0.584 -6.3144,31.3522 -8.2758,36.9113 -1.9563,5.5448 -1.7859,6.7385 0.962,6.7385 2.4548,0 11.5261,-2.7257 17.6303,-5.2975 5.3412,-2.2503 10,-3.0567 10,-1.7309 0,0.6217 -1.4625,1.7459 -3.25,2.4981 -12.721,5.353 -17.9168,8.421 -17.5493,10.3624 0.6507,3.4379 10.1112,2.0683 26.7993,-3.8797 2.6745,-0.9533 21.9118,-5.3049 28.4365,-6.4326 9.1414,-1.58 24.7775,-2.2087 34.5635,-1.3898 20.1459,1.6858 34.9775,5.8237 53.1662,14.8327 14.6439,7.2533 23.8921,16.071 25.3571,24.1769 0.6255,3.4608996 0.4358,3.7923996 -3.8629,6.7499996 -2.4864,1.7107 -4.7531,3.1104 -5.037,3.1104 -0.8913,0 -12.7836,7.0482 -21.1234,12.5192004 -8.1944,5.3756 -18.0593,14.5638 -36.5241,34.0182 -9.3667,9.8688 -11.0676,11.2188 -16.0638,12.75 -11.3505,3.4787 -18.7032,1.8496 -37.5792,-8.3261 -5.2272,-2.818 -9.7139,-4.9136 -9.9705,-4.657 -0.2566,0.2566 1.0729,4.2842 2.9544,8.9502 4.9053,12.165 6.1195,17.9358 6.1533,29.2455 0.027,9.1853 -0.2279,10.5442 -3.1347,16.679796 -5.2402,11.061 -17.6521,26.7353 -26.6949,33.7118 -2.9689,2.2905 -10.2901,6.6899 -16.2693,9.7763 -5.9792,3.0865 -12.8962,6.9806 -15.3712,8.6536 -4.8977,3.3105 -12.0589,10.5626 -14.7415,14.9285 -2.0022,3.2586 -1.928,3.2487 -5.7915,0.7724 z"
           style="fill:#f2f2f2;fill-opacity:1"
           id="path17" /></g><text
         xml:space="preserve"
         style="font-style:normal;font-variant:normal;font-weight:normal;font-stretch:normal;font-size:289.702px;line-height:1;font-family:'Modern Warfare';-inkscape-font-specification:'Modern Warfare, Normal';font-variant-ligatures:normal;font-variant-caps:normal;font-variant-numeric:normal;font-variant-east-asian:normal;text-align:start;letter-spacing:13.2503px;writing-mode:lr-tb;direction:ltr;text-anchor:start;opacity:1;fill:#f2f2f2;fill-opacity:1;stroke-width:9.3807"
         x="2430.8579"
         y="348.08344"
         id="text17"><tspan
           sodipodi:role="line"
           id="tspan17"
           x="2430.8579"
           y="348.08344"
           style="fill:#f2f2f2;stroke-width:9.3807">Una nueva</tspan></text><text
         xml:space="preserve"
         style="font-style:normal;font-variant:normal;font-weight:normal;font-stretch:normal;font-size:111.675px;line-height:1;font-family:'Modern Warfare';-inkscape-font-specification:'Modern Warfare, Normal';font-variant-ligatures:normal;font-variant-caps:normal;font-variant-numeric:normal;font-variant-east-asian:normal;text-align:start;letter-spacing:5.10772px;writing-mode:lr-tb;direction:ltr;text-anchor:start;opacity:1;fill:#f2f2f2;fill-opacity:1;stroke-width:3.6161"
         x="2463.5505"
         y="979.35309"
         id="text18"><tspan
           sodipodi:role="line"
           id="tspan18"
           x="2463.5505"
           y="979.35309"
           style="fill:#f2f2f2;fill-opacity:1;stroke-width:3.6161">academia yoga y ayurveda</tspan></text><text
         xml:space="preserve"
         style="font-style:normal;font-variant:normal;font-weight:normal;font-stretch:normal;font-size:274.489px;line-height:1;font-family:'Modern Warfare';-inkscape-font-specification:'Modern Warfare, Normal';font-variant-ligatures:normal;font-variant-caps:normal;font-variant-numeric:normal;font-variant-east-asian:normal;text-align:start;letter-spacing:12.5544px;writing-mode:lr-tb;direction:ltr;text-anchor:start;opacity:1;fill:#f2f2f2;fill-opacity:1;stroke-width:8.88808"
         x="2439.228"
         y="653.29968"
         id="text19"><tspan
           sodipodi:role="line"
           id="tspan19"
           x="2439.228"
           y="653.29968"
           style="fill:#f2f2f2;stroke-width:8.88808">humanidad</tspan></text></g></g></svg>
