<?xml version="1.0" encoding="UTF-8" standalone="no"?>
<!-- Created with Inkscape (http://www.inkscape.org/) -->

<svg
   width="118.41854mm"
   height="117.95597mm"
   viewBox="0 0 447.56615 445.81785"
   version="1.1"
   id="svg1"
   xml:space="preserve"
   xmlns="http://www.w3.org/2000/svg"
   xmlns:svg="http://www.w3.org/2000/svg"><defs
     id="defs1" /><g
     id="layer1"
     transform="translate(-198.83918,-630.294)"><path
       style="fill:#000000"
       d="m 394.65261,1074.7315 c -65.8417,-8.1707 -122.6543,-42.9832 -158.26743,-96.98007 -7.32354,-11.10398 -10.7326,-17.70842 -10.7326,-20.79244 0,-5.16675 8.41757,-9.09568 12.40217,-5.78875 0.82981,0.68868 4.20196,5.63482 7.49376,10.99143 37.6411,61.25273 105.2676,99.08973 177.1041,99.08973 71.8028,0 138.092,-36.9781 176.7964,-98.62234 7.6486,-12.18202 10.3756,-14.37743 15.3165,-12.33085 5.318,2.20278 6.1998,6.43695 2.7581,13.24306 -4.3463,8.59494 -16.9285,26.54466 -26.083,37.21013 -35.9051,41.8311 -87.293,68.2168 -144.9986,74.4509 -12.8478,1.388 -38.7047,1.153 -51.7894,-0.4708 z m 13,-46.0773 c -37.1719,-4.4383 -65.5453,-15.5686 -92.4845,-36.27958 -15.0246,-11.55105 -31.5155,-29.3771 -31.5155,-34.06708 0,-4.29643 0.9168,-5.96176 4.2238,-7.67188 4.2939,-2.22041 7.4797,-0.55173 13.7858,7.2207 11.665,14.37727 29.0239,28.07064 47.4009,37.39156 65.4438,33.19338 147.3523,17.97758 193.2682,-35.9027 7.8414,-9.20151 10.3198,-10.75125 14.4548,-9.03849 3.4745,1.43918 4.8665,3.68553 4.8665,7.85329 0,2.26523 -1.4889,4.77 -5.8418,9.82751 -26.6092,30.91669 -64.0799,52.04547 -104.2453,58.78127 -9.1576,1.5358 -36.8745,2.7258 -43.9129,1.8854 z m -51.7671,-63.5139 c -11.4661,-1.90989 -23.7197,-11.05274 -28.8402,-21.5186 -1.3983,-2.85803 -3.0501,-8.16053 -3.6707,-11.78334 l -1.1283,-6.58693 h -46.6153 c -51.54308,0 -52.5223,-0.10066 -61.63534,-6.33587 -6.57268,-4.49708 -11.92805,-12.52523 -13.99638,-20.98178 -1.42662,-5.83288 -1.49124,-7.78287 -0.44731,-13.5 3.30108,-18.07858 23.21317,-39.96666 45.84593,-50.39551 3.7151,-1.71185 6.9372,-3.25919 7.1602,-3.43854 0.2231,-0.17934 -1.8687,-2.73078 -4.6483,-5.66986 -14.75347,-15.59959 -17.56775,-39.18253 -7.0343,-58.94533 16.6949,-31.32286 65.5739,-33.32281 84.8671,-3.47245 13.1002,20.26856 10.9495,45.91313 -5.2692,62.82894 -2.7095,2.82598 -4.7902,5.21307 -4.6236,5.30464 0.1665,0.0916 3.2033,1.50283 6.7484,3.13613 9.6567,4.44905 17.7225,9.96214 25.3746,17.34379 5.3064,5.11894 12.0023,13.07599 14.1997,16.87438 0.079,0.1367 3.6961,-1.7758 8.0377,-4.25 4.3417,-2.47419 8.205,-4.49854 8.5853,-4.49854 0.3802,0 2.7234,-0.87106 5.2071,-1.93569 l 4.5157,-1.9357 -6.7852,-6.90746 c -18.8724,-19.21229 -22.2218,-47.705 -8.357,-71.091 12.906,-21.76876 41.8157,-32.10843 67.486,-24.1366 19.7176,6.12326 34.3931,22.7301 38.3036,43.34442 1.9801,10.43782 1.8751,15.8243 -0.4886,25.06602 -2.7405,10.71529 -7.3713,18.9081 -15.2074,26.90478 l -6.6829,6.81984 4.5158,1.9357 c 2.4837,1.06463 4.8269,1.93569 5.2071,1.93569 0.3802,0 4.2436,2.02435 8.5852,4.49854 4.3417,2.4742 7.9586,4.3867 8.0377,4.25 2.1975,-3.79839 8.8933,-11.75544 14.1998,-16.87438 7.652,-7.38165 15.7178,-12.89474 25.3745,-17.34379 3.5451,-1.6333 6.5819,-3.04456 6.7485,-3.13613 0.1665,-0.0916 -1.9141,-2.47866 -4.6236,-5.30464 -9.6032,-10.01587 -14.9357,-24.41557 -13.7838,-37.22126 2.5245,-28.06508 22.3885,-46.81356 49.6445,-46.85647 28.6929,-0.0452 49.9934,21.2553 49.9482,49.94823 -0.021,13.28046 -4.3625,24.29887 -13.3398,33.85473 -3.8157,4.06163 -4.7601,5.6125 -3.6483,5.99139 0.825,0.28118 5.13,2.37502 9.5667,4.653 22.5717,11.58926 40.5743,33.04611 42.9871,51.23538 1.4645,11.03946 -5.3218,25.62177 -14.9135,32.04608 -9.1956,6.159 -10.1832,6.25932 -61.6187,6.25932 h -46.6154 l -1.1283,6.58693 c -3.0036,17.53487 -16.0148,30.5423 -33.3677,33.35787 -7.8454,1.27295 -124.9958,1.22356 -132.6773,-0.0559 z m 133.6781,-16.45509 c 10.6189,-3.15346 18.0607,-14.58088 16.7427,-25.70939 -1.4062,-11.87328 -19.5108,-34.17883 -35.1537,-43.31082 -16.4283,-9.59043 -28.64,-12.81781 -48.5,-12.81781 -19.86,0 -32.0717,3.22738 -48.5,12.81781 -9.9828,5.82773 -24.759,20.88306 -30.5,31.07617 -4.1623,7.39002 -4.4978,8.51594 -4.4703,15 0.035,8.32258 2.4016,13.65161 8.1913,18.44661 7.1757,5.94297 6.8602,5.91771 74.8475,5.994 53.5667,0.0601 62.7909,-0.14488 67.3425,-1.49657 z m -160.5347,-44.18378 c 3.0537,-6.01852 9.9911,-15.34471 16.0619,-21.59241 l 4.7052,-4.84242 -2.7174,-4.15758 c -3.9111,-5.98369 -16.1954,-17.60032 -22.7487,-21.5122 -13.9966,-8.35505 -26.8471,-11.55446 -43.6773,-10.87441 -17.1524,0.69307 -30.3462,5.61997 -44.26617,16.53007 -10.975,8.60191 -21.73386,24.38874 -21.73386,31.8908 0,6.90512 5.2756,15.11248 11.5,17.8908 2.36932,1.05756 13.24511,1.3473 51.73313,1.37821 l 48.7332,0.0391 z m 289.3086,3.68639 c 6.4472,-2.43595 12.2498,-10.94481 12.2931,-18.02666 0.047,-7.68135 -10.5609,-23.3688 -21.7119,-32.10868 -13.9199,-10.9101 -27.1138,-15.837 -44.2661,-16.53007 -16.8302,-0.68005 -29.6807,2.51936 -43.6774,10.87441 -6.5533,3.91188 -18.8376,15.52851 -22.7486,21.5122 l -2.7175,4.15758 4.7053,4.84242 c 6.0707,6.2477 13.0081,15.57389 16.0618,21.59241 l 2.4101,4.75 h 48.418 c 31.7783,0 49.3855,-0.36553 51.2332,-1.06361 z m -177.4442,-62.65579 c 21.1967,-9.95837 29.6916,-35.65848 18.8621,-57.06424 -12.3496,-24.41036 -47.1829,-29.65215 -66.8746,-10.06342 -15.9222,15.83897 -16.0044,43.16616 -0.1773,58.99322 8.7458,8.74578 17.4175,11.93465 31.4491,11.56486 8.8347,-0.23284 10.7855,-0.63259 16.7407,-3.43042 z m -141.9067,-24.20025 c 7.133,-3.45304 12.3204,-8.63304 15.874,-15.85129 2.8936,-5.8778 3.2919,-7.65764 3.2912,-14.70803 -0.001,-9.74732 -2.9759,-17.05168 -9.6694,-23.74138 -6.2899,-6.28634 -12.669,-9.011 -22.3298,-9.53752 -10.4932,-0.57188 -17.7901,2.02746 -25.1006,8.94144 -23.98948,22.68824 -4.6372,62.05104 28.359,57.6828 2.8922,-0.38289 7.2012,-1.63659 9.5756,-2.78602 z m 277.5038,-0.5238 c 20.9208,-10.71651 24.7773,-38.74033 7.5037,-54.52743 -7.545,-6.89563 -14.4873,-9.3513 -24.8415,-8.78699 -9.6608,0.52652 -16.0399,3.25118 -22.3298,9.53752 -6.6935,6.6897 -9.6685,13.99406 -9.6694,23.74138 -7e-4,7.05039 0.3975,8.83023 3.2912,14.70803 8.4147,17.09283 29.1347,23.99 46.0458,15.32749 z m -257.6509,-96.10537 c -3.2505,-2.32287 -4.5422,-6.17924 -3.1752,-9.47953 1.4815,-3.57666 16.7776,-13.59119 31.1318,-20.38237 48.7285,-23.05413 103.6933,-23.06077 151.7738,-0.0183 14.5465,6.97138 29.6032,16.85739 31.0709,20.4007 2.1812,5.26582 -3.1249,11.96381 -8.4241,10.63381 -1.3477,-0.33826 -6.1293,-3.07744 -10.6257,-6.08705 -31.0555,-20.78663 -70.7276,-29.96765 -108.1372,-25.02537 -25.5419,3.37441 -52.2789,13.60609 -70.9386,27.14675 -5.7581,4.17847 -9.5774,5.02556 -12.6757,2.81139 z m -64.3058,-5.45789 c -2.6774,-1.5644 -4.1268,-6.21696 -2.923,-9.38307 1.3011,-3.42211 20.0447,-22.80132 29.7538,-30.7627 30.2375,-24.79461 70.888,-42.03093 111.5893,-47.31532 15.2882,-1.98493 44.091,-1.9864 59.3976,-0.003 41.2311,5.34258 80.9185,22.16883 111.5692,47.30195 9.7255,7.97479 28.4715,27.35373 29.7739,30.77911 0.7556,1.98742 0.7182,3.55468 -0.1339,5.61187 -1.3946,3.36685 -3.6743,4.77791 -7.7191,4.77791 -2.4386,0 -4.4378,-1.6288 -11.6706,-9.50831 -40.891,-44.5467 -101.3372,-68.25228 -164.2938,-64.43216 -54.6001,3.31306 -103.4738,26.00998 -138.7428,64.43216 -7.4993,8.1697 -9.1682,9.50403 -11.8549,9.47791 -1.7197,-0.0167 -3.8553,-0.45607 -4.7457,-0.97631 z"
       id="path2" /></g></svg>
