<?xml version="1.0" encoding="UTF-8" standalone="no"?>
<!-- Created with Inkscape (http://www.inkscape.org/) -->

<svg
   width="130.96873mm"
   height="135.35718mm"
   viewBox="0 0 494.99996 511.58619"
   version="1.1"
   id="svg1"
   xml:space="preserve"
   xmlns="http://www.w3.org/2000/svg"
   xmlns:svg="http://www.w3.org/2000/svg"><defs
     id="defs1" /><g
     id="layer1"
     transform="translate(-156.27126,-38.608082)"><path
       style="fill:#000000"
       d="m 206.22583,547.73971 -2.45455,-2.45454 V 414.19426 283.10335 l 2.45455,-2.45455 c 3.24734,-3.24734 7.84356,-3.24734 11.09091,0 l 2.45454,2.45455 v 131.09091 131.09091 l -2.45454,2.45454 c -1.54724,1.54724 -3.59709,2.45455 -5.54546,2.45455 -1.94837,0 -3.99822,-0.90731 -5.54545,-2.45455 z m 56,0 -2.45455,-2.45454 v -63.09091 -63.09091 l 2.45455,-2.45455 c 3.24734,-3.24734 7.84356,-3.24734 11.09091,0 l 2.45454,2.45455 v 63.09091 63.09091 l -2.45454,2.45454 c -1.54724,1.54724 -3.59709,2.45455 -5.54546,2.45455 -1.94837,0 -3.99822,-0.90731 -5.54545,-2.45455 z m 56,0 -2.45455,-2.45454 V 394.19426 243.10335 l 2.45455,-2.45455 c 2.914,-2.914 7.44976,-3.22389 10.31223,-0.70454 1.0936,0.9625 15.60848,26.05 32.25531,55.75 16.64682,29.7 31.21442,55.07049 32.37243,56.37888 9.1623,10.35203 26.60548,3.38005 26.60548,-10.63413 0,-3.16265 -6.39813,-15.48457 -36.49789,-70.28983 -27.0658,-49.2811 -37.50636,-67.40932 -40.40023,-70.14799 -4.90159,-4.6387 -10.29439,-6.21398 -29.10188,-8.50084 -18.39375,-2.23655 -70.69862,-2.51392 -87.5,-0.46399 -17.48957,2.13389 -37.32799,6.0295 -41.47237,8.1438 -4.88798,2.49366 -10.38215,8.91632 -11.86707,13.87254 -0.8314,2.77495 -1.16056,23.1624 -1.16056,71.88185 0,58.70455 0.21087,68.60686 1.54141,72.38398 2.10512,5.976 8.68008,12.45641 14.64994,14.43928 7.84631,2.60613 10.30616,9.02985 5.35411,13.9819 -3.36755,3.36755 -6.9454,3.12059 -15.29308,-1.05558 -8.52665,-4.26571 -14.30364,-10.26722 -18.58786,-19.31026 l -3.16452,-6.67961 v -74.05187 -74.05186 l 3.77234,-7.63282 c 6.41918,-12.98833 15.21027,-19.06586 32.77669,-22.65945 39.49415,-8.0794 86.44403,-9.33643 130.45097,-3.49268 6.6,0.87643 14.37365,2.41728 17.27479,3.42411 6.77165,2.3501 14.48256,8.02481 18.15268,13.35914 5.21667,7.58217 74.3601,134.00067 75.80896,138.60543 1.81265,5.76096 1.04351,15.36254 -1.69779,21.19441 -3.35728,7.14231 -7.63947,11.48382 -14.80532,15.01045 -5.71561,2.81289 -7.73751,3.28936 -13.81556,3.25569 -5.96683,-0.0331 -8.19122,-0.56677 -13.73331,-3.29514 -3.63729,-1.79063 -7.86764,-4.77748 -9.40078,-6.63744 -1.53314,-1.85997 -13.13666,-21.80148 -25.7856,-44.31447 l -22.99807,-40.93271 -0.5,134.44805 -0.5,134.44805 -2.36078,1.91155 c -3.28666,2.66125 -7.70497,2.43671 -10.68467,-0.54299 z m 160.40624,0.54299 -2.36079,-1.91155 -0.5,-134.4835 -0.5,-134.48349 -10.85258,19.41477 c -5.96893,10.67812 -11.67684,19.85589 -12.68426,20.39505 -4.94518,2.64657 -11.96316,-1.15699 -11.96316,-6.48372 0,-1.46144 7.75987,-16.34207 18.13117,-34.76906 21.93186,-38.96694 19.74931,-35.47479 23.01739,-36.82848 3.2214,-1.33435 6.20027,-0.55379 8.88527,2.32822 1.93688,2.079 1.96617,4.35788 1.96617,152.96733 v 150.8569 l -2.45454,2.45454 c -2.9797,2.9797 -7.39802,3.20424 -10.68467,0.54299 z m 55.59376,-0.54299 -2.45455,-2.45454 v -63.09091 -63.09091 l 2.45455,-2.45455 c 3.24734,-3.24734 7.84356,-3.24734 11.09091,0 l 2.45454,2.45455 v 63.09091 63.09091 l -2.45454,2.45454 c -1.54724,1.54724 -3.59709,2.45455 -5.54546,2.45455 -1.94837,0 -3.99822,-0.90731 -5.54545,-2.45455 z m 56,0 -2.45455,-2.45454 V 414.19426 283.10335 l 2.45455,-2.45455 c 3.24734,-3.24734 7.84356,-3.24734 11.09091,0 l 2.45454,2.45455 v 131.09091 131.09091 l -2.45454,2.45454 c -1.54724,1.54724 -3.59709,2.45455 -5.54546,2.45455 -1.94837,0 -3.99822,-0.90731 -5.54545,-2.45455 z m 24,-161 c -4.95205,-4.95205 -2.49221,-11.37577 5.35411,-13.9819 5.96985,-1.98287 12.54481,-8.46328 14.64993,-14.43928 1.33054,-3.77712 1.54141,-13.67943 1.54141,-72.38398 0,-48.71945 -0.32916,-69.1069 -1.16056,-71.88185 -1.48492,-4.95622 -6.97909,-11.37888 -11.86707,-13.87254 -4.14437,-2.1143 -23.9828,-6.00991 -41.47237,-8.1438 -16.80138,-2.04993 -69.10625,-1.77256 -87.5,0.46399 -19.60288,2.38358 -24.46282,3.8716 -29.51595,9.03722 -2.68853,2.74838 -9.93858,14.89003 -21.39885,35.83662 -13.9527,25.50215 -17.86359,31.89984 -20.0552,32.80764 -5.31347,2.20091 -11.03,-1.33754 -11.03,-6.82742 0,-2.46258 31.83197,-61.23691 37.36648,-68.99321 3.48914,-4.88983 10.18562,-10.13071 16.13352,-12.6266 5.37883,-2.2571 25.59453,-5.15615 46.15521,-6.61893 41.1587,-2.92821 100.1183,2.3345 118.03156,10.53546 7.22978,3.3099 14.725,11.07977 18.6201,19.30237 l 3.19313,6.74076 v 74 74 l -3.16452,6.67961 c -4.28422,9.04304 -10.06121,15.04455 -18.58786,19.31026 -8.34768,4.17617 -11.92553,4.42313 -15.29307,1.05558 z M 253.96188,164.23325 c -21.04167,-5.69649 -36.00888,-21.42494 -40.79133,-42.86601 -1.27213,-5.70331 -1.53089,-10.80025 -1.16767,-22.999997 0.50137,-16.83951 2.01237,-23.12175 8.00751,-33.29255 5.96652,-10.12226 18.33104,-19.85139 30.57045,-24.05463 8.81556,-3.02743 24.89617,-3.24005 33.19044,-0.43885 18.30693,6.18275 31.78124,19.58008 37.28454,37.07152 1.93464,6.14896 2.21546,9.25979 2.21546,24.541527 0,15.28174 -0.28082,18.39256 -2.21546,24.54152 -2.47447,7.86474 -8.11403,17.2213 -13.81787,22.92514 -13.57159,13.5716 -35.16043,19.47668 -53.27607,14.57233 z m 30.23825,-17.8589 c 9.02355,-4.22263 14.86119,-9.96464 19.33643,-19.01968 l 3.73472,-7.55669 V 102.19426 84.590533 l -3.73472,-7.55669 c -4.49813,-9.10134 -10.28875,-14.77057 -19.58567,-19.17506 -6.0408,-2.86188 -7.58815,-3.16452 -16.17961,-3.16452 -8.59145,0 -10.13881,0.30264 -16.17961,3.16452 -9.29692,4.40449 -15.08754,10.07372 -19.58567,19.17506 l -3.73472,7.55669 v 17.551857 17.55187 l 3.16452,6.67961 c 4.01844,8.48204 9.73964,14.69116 17.20113,18.66809 7.87691,4.19835 12.18755,5.14788 21.38359,4.71028 6.00216,-0.28562 9.19897,-1.04717 14.17961,-3.37789 z m 241.76175,17.8589 c -21.04167,-5.69649 -36.00888,-21.42494 -40.79133,-42.86601 -1.27213,-5.70331 -1.53089,-10.80025 -1.16767,-22.999997 0.50137,-16.83951 2.01237,-23.12175 8.00751,-33.29255 5.96652,-10.12226 18.33104,-19.85139 30.57045,-24.05463 8.81556,-3.02743 24.89617,-3.24005 33.19044,-0.43885 18.30693,6.18275 31.78124,19.58008 37.28454,37.07152 1.93464,6.14896 2.21546,9.25979 2.21546,24.541527 0,15.28174 -0.28082,18.39256 -2.21546,24.54152 -2.47447,7.86474 -8.11403,17.2213 -13.81787,22.92514 -13.57159,13.5716 -35.16043,19.47668 -53.27607,14.57233 z m 30.23825,-17.8589 c 9.02355,-4.22263 14.86119,-9.96464 19.33643,-19.01968 l 3.73472,-7.55669 V 102.19426 84.590533 l -3.73472,-7.55669 c -4.49813,-9.10134 -10.28875,-14.77057 -19.58567,-19.17506 -6.0408,-2.86188 -7.58815,-3.16452 -16.17961,-3.16452 -8.59145,0 -10.13881,0.30264 -16.17961,3.16452 -9.29692,4.40449 -15.08754,10.07372 -19.58567,19.17506 l -3.73472,7.55669 v 17.551857 17.55187 l 3.16452,6.67961 c 4.01844,8.48204 9.73964,14.69116 17.20113,18.66809 7.87691,4.19835 12.18755,5.14788 21.38359,4.71028 6.00216,-0.28562 9.19897,-1.04717 14.17961,-3.37789 z"
       id="path1" /></g></svg>
